<svg width="24" height="24" viewBox="0 0 24 24" fill="none" xmlns="http://www.w3.org/2000/svg">
<path d="M11.0977 2.41528C11.693 2.29621 12.307 2.29621 12.9023 2.41528C14.225 2.67994 15.3644 3.51254 16.0195 4.69165L22.2061 15.8264C22.5628 16.4687 22.75 17.1913 22.75 17.926C22.75 20.3141 20.8138 22.2502 18.4258 22.2502H5.57422C3.18619 22.2502 1.25 20.3141 1.25 17.926C1.25003 17.1913 1.43717 16.4687 1.79395 15.8264L7.98047 4.69165C8.6356 3.51254 9.77499 2.67994 11.0977 2.41528ZM12 15.2502C11.5858 15.2502 11.25 15.586 11.25 16.0002V16.5002C11.2501 16.9144 11.5858 17.2502 12 17.2502C12.4142 17.2502 12.7499 16.9144 12.75 16.5002V16.0002C12.75 15.586 12.4142 15.2502 12 15.2502ZM12 8.25024C11.5858 8.25024 11.25 8.58603 11.25 9.00024V13.0002C11.2501 13.4144 11.5858 13.7502 12 13.7502C12.4142 13.7502 12.7499 13.4144 12.75 13.0002V9.00024C12.75 8.58603 12.4142 8.25024 12 8.25024Z" fill="#A36EF7"/>
</svg>
