<svg width="40" height="22" viewBox="0 0 40 22" fill="none" xmlns="http://www.w3.org/2000/svg">
<path d="M36.6613 10.6913C36.6384 8.15152 38.7409 6.91589 38.837 6.85837C37.6463 5.12235 35.8008 4.88515 35.1522 4.86624C33.6022 4.70312 32.0986 5.79375 31.309 5.79375C30.5037 5.79375 29.2877 4.882 27.9772 4.90879C26.2909 4.9348 24.7132 5.91116 23.848 7.42732C22.0623 10.5188 23.3941 15.0617 25.1049 17.5605C25.9607 18.7844 26.9607 20.1508 28.2696 20.1027C29.5501 20.0499 30.0285 19.2863 31.5738 19.2863C33.1049 19.2863 33.5541 20.1027 34.889 20.072C36.2633 20.0499 37.1286 18.8427 37.9544 17.6078C38.9434 16.2051 39.3406 14.8237 39.3563 14.7528C39.324 14.7418 36.6873 13.7355 36.6613 10.6913Z" fill="white"/>
<path d="M34.1404 3.22224C34.8292 2.36093 35.3004 1.18913 35.1696 0C34.1727 0.0441295 32.9261 0.689523 32.2082 1.53192C31.573 2.27424 31.0057 3.49096 31.1522 4.63517C32.272 4.7187 33.4217 4.07016 34.1404 3.22224Z" fill="white"/>
<path d="M0.295 2.80176C0.0737498 3.02301 0 3.39176 0 3.83426V20.133C0 20.5755 0.1475 20.9443 0.36875 21.1655L0.442501 21.2393L9.58751 12.0943V11.9468L0.295 2.80176Z" fill="url(#paint0_linear_39_507)"/>
<path d="M12.5384 15.1906L9.51465 12.1669V11.9456L12.5384 8.92188L12.6122 8.99562L16.2259 11.0606C17.2584 11.6506 17.2584 12.6094 16.2259 13.1994L12.5384 15.1906Z" fill="#F3F3F3"/>
<path d="M12.6112 15.118L9.51368 12.0205L0.294922 21.2393C0.663672 21.608 1.17992 21.608 1.84367 21.313L12.6112 15.118Z" fill="#CACACA"/>
<path d="M12.6112 8.92326L1.84367 2.80201C1.17992 2.43326 0.663672 2.50701 0.294922 2.87576L9.51368 12.0208L12.6112 8.92326Z" fill="#F8F8F8"/>
<defs>
<linearGradient id="paint0_linear_39_507" x1="1.00986" y1="2.75345" x2="4.79375" y2="21.2393" gradientUnits="userSpaceOnUse">
<stop stop-color="white"/>
<stop offset="1" stop-color="#C6C6C6"/>
</linearGradient>
</defs>
</svg>
