<svg width="73" height="73" viewBox="0 0 73 73" fill="none" xmlns="http://www.w3.org/2000/svg">
<g clip-path="url(#clip0_39_72)">
<path d="M53.1191 0.441759C69.0213 -0.747113 78.7159 16.9279 69.2954 29.6856C64.1872 34.7637 59.376 40.3773 54.0082 45.194C48.3252 50.2931 39.9729 51.3056 33.2144 47.707C31.5759 46.8343 28.6681 44.833 27.9407 43.1114C26.1999 38.9919 30.6191 35.1183 34.4983 37.3763C35.1489 37.7546 35.6341 38.3797 36.2391 38.8338C39.7902 41.4958 44.5256 41.292 47.8847 38.4327C52.0965 33.7338 57.4451 29.5038 61.5463 24.7711C67.455 17.9532 61.3023 7.68282 52.4958 9.78094C48.2229 10.7989 44.9258 16.0908 41.6242 18.8304C37.1913 22.5076 31.4525 16.7268 35.2238 12.3387C37.1246 10.1273 40.2535 7.0925 42.4439 5.12049C45.2831 2.56455 49.281 0.72961 53.1182 0.442673L53.1191 0.441759Z" fill="#A36EF7"/>
<path d="M30.9123 23.013C35.7327 22.7041 42.1531 24.7693 45.2756 28.6092C48.58 32.6729 43.8346 38.1128 39.3669 35.4317C38.7583 35.0662 38.2676 34.4411 37.6864 34.0052C34.1353 31.3433 29.4009 31.5471 26.0408 34.4064C21.829 39.1052 16.4804 43.3353 12.3793 48.0679C6.45043 54.9097 12.6863 65.2321 21.5046 63.0417C25.8141 61.9716 28.9988 56.6916 32.3507 53.9666C36.4583 50.6275 41.8342 55.3583 39.2326 59.8433C33.7588 65.3545 29.0655 71.9157 20.5634 72.4266C4.09096 73.4171 -5.399 54.1914 5.66272 41.8997C10.1048 36.9642 15.4414 32.4984 19.9639 27.5985C22.9877 24.9567 26.8769 23.2707 30.9123 23.0121V23.013Z" fill="#A36EF7"/>
</g>
<defs>
<clipPath id="clip0_39_72">
<rect width="72.11" height="72.0789" fill="white" transform="translate(0.890137 0.385101)"/>
</clipPath>
</defs>
</svg>
