<svg width="68" height="68" viewBox="0 0 68 68" fill="none" xmlns="http://www.w3.org/2000/svg">
<rect width="68" height="68" rx="14" fill="#50B3FF"/>
<g clip-path="url(#clip0_241_185)">
<path d="M34.11 19C23.5742 19 15 25.506 15 33.5059C15 38.5996 18.4366 43.2351 24.1925 45.8996L24.8359 46.1978L25.065 53.1683L33.793 48.0087H34.1069C44.6426 48.0087 53.2169 41.5027 53.2169 33.5028C53.2169 25.5029 44.6458 19 34.11 19ZM26.8571 35.957C25.6519 35.957 24.6696 34.9747 24.6696 33.7695C24.6696 32.5644 25.6519 31.582 26.8571 31.582C28.0622 31.582 29.0445 32.5644 29.0445 33.7695C29.0445 34.9747 28.0622 35.957 26.8571 35.957ZM33.8401 35.957C32.6349 35.957 31.6526 34.9747 31.6526 33.7695C31.6526 32.5644 32.6349 31.582 33.8401 31.582C35.0453 31.582 36.0276 32.5644 36.0276 33.7695C36.0276 34.9747 35.0453 35.957 33.8401 35.957ZM41.363 35.957C40.1578 35.957 39.1755 34.9747 39.1755 33.7695C39.1755 32.5644 40.1578 31.582 41.363 31.582C42.5681 31.582 43.5504 32.5644 43.5504 33.7695C43.5504 34.9747 42.5681 35.957 41.363 35.957Z" fill="white"/>
</g>
<defs>
<clipPath id="clip0_241_185">
<rect width="38.22" height="34.1683" fill="white" transform="translate(15 19)"/>
</clipPath>
</defs>
</svg>
