<svg width="77" height="78" viewBox="0 0 77 78" fill="none" xmlns="http://www.w3.org/2000/svg">
<circle cx="38.5" cy="39.375" r="38.5" fill="#252330"/>
<path fill-rule="evenodd" clip-rule="evenodd" d="M34.848 23.9233C37.6831 23.9233 40.3763 24.5372 42.7979 25.6382C41.6594 25.33 40.4635 25.1635 39.2278 25.1635C31.7288 25.1635 25.6499 31.2277 25.6499 38.7086C25.6499 46.1894 31.7288 52.2536 39.2278 52.2536C46.7268 52.2536 52.8057 46.1894 52.8057 38.7086C52.8057 37.4759 52.6388 36.2829 52.3299 35.1471C53.4336 37.5628 54.0489 40.2495 54.0489 43.0778C54.0489 53.6578 45.4512 62.2347 34.8455 62.2347C24.2422 62.2347 15.6445 53.6578 15.6445 43.0778C15.6445 32.5002 24.2422 23.9233 34.848 23.9233Z" fill="white"/>
<path d="M44.5342 44C47.4637 41.0776 47.4637 36.3394 44.5342 33.417C41.6047 30.4946 36.855 30.4946 33.9255 33.417C30.9959 36.3394 30.9959 41.0776 33.9255 44C36.855 46.9224 41.6047 46.9224 44.5342 44Z" fill="#17E5C2"/>
<path d="M59.7469 27.237C60.6985 23.2146 58.2013 19.1842 54.1691 18.2348C50.1369 17.2855 46.0967 19.7766 45.145 23.7991C44.1934 27.8215 46.6906 31.8519 50.7228 32.8013C54.755 33.7506 58.7952 31.2595 59.7469 27.237Z" fill="white"/>
</svg>
