<svg width="233" height="89" viewBox="0 0 233 89" fill="none" xmlns="http://www.w3.org/2000/svg">
<rect x="1.09216" y="0.881222" width="219.279" height="63.8559" rx="31.9279" fill="url(#paint0_linear_219_191)" stroke="#625D81" stroke-width="1.20483"/>
<path d="M69.2286 40.9653L65.7544 34.929H63.8654V40.9653H61.39V25.8745H66.6012C67.7593 25.8745 68.7364 26.0772 69.5326 26.4825C70.3432 26.8878 70.9439 27.4307 71.3348 28.111C71.7401 28.7914 71.9427 29.5513 71.9427 30.3909C71.9427 31.3753 71.6532 32.2727 71.0742 33.0834C70.5097 33.8795 69.6339 34.4224 68.4469 34.7119L72.1816 40.9653H69.2286ZM63.8654 32.9531H66.6012C67.5277 32.9531 68.2225 32.7215 68.6857 32.2583C69.1634 31.7951 69.4023 31.1726 69.4023 30.3909C69.4023 29.6092 69.1707 29.0013 68.7074 28.567C68.2442 28.1183 67.5422 27.8939 66.6012 27.8939H63.8654V32.9531ZM86.0746 34.6902C86.0746 35.1389 86.0456 35.5442 85.9877 35.9061H76.8464C76.9188 36.8615 77.2734 37.6287 77.9103 38.2077C78.5473 38.7868 79.329 39.0763 80.2554 39.0763C81.5871 39.0763 82.5281 38.519 83.0781 37.4043H85.7489C85.387 38.5045 84.7283 39.4092 83.773 40.1185C82.832 40.8133 81.6595 41.1608 80.2554 41.1608C79.1118 41.1608 78.0841 40.9074 77.1721 40.4008C76.2746 39.8797 75.5653 39.1559 75.0442 38.2294C74.5375 37.2885 74.2842 36.2029 74.2842 34.9724C74.2842 33.742 74.5303 32.6636 75.0225 31.7371C75.5291 30.7962 76.2312 30.0725 77.1287 29.5658C78.0406 29.0592 79.0829 28.8058 80.2554 28.8058C81.3845 28.8058 82.3905 29.0519 83.2736 29.5441C84.1566 30.0363 84.8442 30.7311 85.3363 31.6286C85.8285 32.5116 86.0746 33.5321 86.0746 34.6902ZM83.4907 33.9085C83.4762 32.9965 83.1505 32.2655 82.5136 31.7154C81.8767 31.1654 81.0877 30.8903 80.1468 30.8903C79.2928 30.8903 78.5617 31.1654 77.9538 31.7154C77.3458 32.251 76.9839 32.982 76.8681 33.9085H83.4907ZM87.6854 34.9724C87.6854 33.742 87.9315 32.6636 88.4237 31.7371C88.9303 30.7962 89.6252 30.0725 90.5082 29.5658C91.3912 29.0592 92.4045 28.8058 93.548 28.8058C94.9956 28.8058 96.1898 29.1533 97.1308 29.8481C98.0861 30.5284 98.7303 31.5055 99.0632 32.7794H96.3925C96.1754 32.1859 95.828 31.7227 95.3503 31.3897C94.8726 31.0568 94.2718 30.8903 93.548 30.8903C92.5348 30.8903 91.7241 31.2522 91.1161 31.976C90.5227 32.6853 90.2259 33.6841 90.2259 34.9724C90.2259 36.2608 90.5227 37.2668 91.1161 37.9906C91.7241 38.7144 92.5348 39.0763 93.548 39.0763C94.9811 39.0763 95.9293 38.4466 96.3925 37.1872H99.0632C98.7158 38.4032 98.0644 39.373 97.109 40.0968C96.1537 40.8061 94.9667 41.1608 93.548 41.1608C92.4045 41.1608 91.3912 40.9074 90.5082 40.4008C89.6252 39.8797 88.9303 39.1559 88.4237 38.2294C87.9315 37.2885 87.6854 36.2029 87.6854 34.9724ZM102.789 27.4162C102.341 27.4162 101.964 27.2642 101.66 26.9602C101.356 26.6562 101.204 26.2799 101.204 25.8311C101.204 25.3824 101.356 25.006 101.66 24.702C101.964 24.398 102.341 24.246 102.789 24.246C103.224 24.246 103.593 24.398 103.897 24.702C104.201 25.006 104.353 25.3824 104.353 25.8311C104.353 26.2799 104.201 26.6562 103.897 26.9602C103.593 27.2642 103.224 27.4162 102.789 27.4162ZM104.005 29.0013V40.9653H101.53V29.0013H104.005ZM109.731 30.76C110.15 30.21 110.722 29.7468 111.446 29.3704C112.17 28.994 112.988 28.8058 113.9 28.8058C114.942 28.8058 115.89 29.0664 116.744 29.5875C117.613 30.0942 118.293 30.8107 118.785 31.7371C119.277 32.6636 119.523 33.7275 119.523 34.929C119.523 36.1305 119.277 37.2089 118.785 38.1643C118.293 39.1052 117.613 39.8435 116.744 40.3791C115.89 40.9002 114.942 41.1608 113.9 41.1608C112.988 41.1608 112.177 40.9798 111.468 40.6179C110.758 40.2416 110.179 39.7783 109.731 39.2283V46.6542H107.255V29.0013H109.731V30.76ZM117.005 34.929C117.005 34.1039 116.831 33.3946 116.483 32.8011C116.151 32.1931 115.702 31.7371 115.137 31.4332C114.587 31.1147 113.994 30.9555 113.357 30.9555C112.734 30.9555 112.141 31.1147 111.576 31.4332C111.026 31.7516 110.577 32.2148 110.23 32.8228C109.897 33.4308 109.731 34.1473 109.731 34.9724C109.731 35.7975 109.897 36.5213 110.23 37.1438C110.577 37.7518 111.026 38.215 111.576 38.5334C112.141 38.8519 112.734 39.0111 113.357 39.0111C113.994 39.0111 114.587 38.8519 115.137 38.5334C115.702 38.2005 116.151 37.7228 116.483 37.1004C116.831 36.4779 117.005 35.7541 117.005 34.929ZM123.231 27.4162C122.782 27.4162 122.405 27.2642 122.101 26.9602C121.797 26.6562 121.645 26.2799 121.645 25.8311C121.645 25.3824 121.797 25.006 122.101 24.702C122.405 24.398 122.782 24.246 123.231 24.246C123.665 24.246 124.034 24.398 124.338 24.702C124.642 25.006 124.794 25.3824 124.794 25.8311C124.794 26.2799 124.642 26.6562 124.338 26.9602C124.034 27.2642 123.665 27.4162 123.231 27.4162ZM124.447 29.0013V40.9653H121.971V29.0013H124.447ZM138.662 34.6902C138.662 35.1389 138.633 35.5442 138.575 35.9061H129.433C129.506 36.8615 129.861 37.6287 130.497 38.2077C131.134 38.7868 131.916 39.0763 132.842 39.0763C134.174 39.0763 135.115 38.519 135.665 37.4043H138.336C137.974 38.5045 137.315 39.4092 136.36 40.1185C135.419 40.8133 134.247 41.1608 132.842 41.1608C131.699 41.1608 130.671 40.9074 129.759 40.4008C128.862 39.8797 128.152 39.1559 127.631 38.2294C127.125 37.2885 126.871 36.2029 126.871 34.9724C126.871 33.742 127.117 32.6636 127.61 31.7371C128.116 30.7962 128.818 30.0725 129.716 29.5658C130.628 29.0592 131.67 28.8058 132.842 28.8058C133.972 28.8058 134.978 29.0519 135.861 29.5441C136.744 30.0363 137.431 30.7311 137.923 31.6286C138.416 32.5116 138.662 33.5321 138.662 34.6902ZM136.078 33.9085C136.063 32.9965 135.738 32.2655 135.101 31.7154C134.464 31.1654 133.675 30.8903 132.734 30.8903C131.88 30.8903 131.149 31.1654 130.541 31.7154C129.933 32.251 129.571 32.982 129.455 33.9085H136.078ZM147.134 28.8058C148.075 28.8058 148.914 29.0013 149.653 29.3921C150.405 29.7829 150.992 30.362 151.411 31.1292C151.831 31.8964 152.041 32.8228 152.041 33.9085V40.9653H149.588V34.2776C149.588 33.2064 149.32 32.3885 148.784 31.824C148.249 31.245 147.518 30.9555 146.591 30.9555C145.665 30.9555 144.926 31.245 144.376 31.824C143.841 32.3885 143.573 33.2064 143.573 34.2776V40.9653H141.098V29.0013H143.573V30.3692C143.978 29.877 144.492 29.4934 145.115 29.2184C145.752 28.9434 146.425 28.8058 147.134 28.8058ZM158.086 31.0206V37.6432C158.086 38.0919 158.188 38.4176 158.39 38.6203C158.608 38.8085 158.969 38.9026 159.476 38.9026H160.996V40.9653H159.042C157.927 40.9653 157.073 40.7048 156.48 40.1837C155.886 39.6625 155.589 38.8157 155.589 37.6432V31.0206H154.178V29.0013H155.589V26.0265H158.086V29.0013H160.996V31.0206H158.086Z" fill="white"/>
<path d="M202.592 52.0425C203.072 51.8602 203.566 51.9128 203.994 52.0347L204.173 52.0903L204.314 52.1382L204.438 52.2202L229.864 69.0024L229.893 69.022C230.043 69.1278 230.273 69.2857 230.48 69.4526C230.681 69.6149 230.95 69.8563 231.147 70.1724C231.361 70.5148 231.531 71.022 231.354 71.6001C231.192 72.1273 230.804 72.4909 230.431 72.7417L230.281 72.8423L230.107 72.8931L216.64 76.77C215.709 77.6174 214.791 78.4915 213.874 79.3706L213.482 79.7466C211.1 82.0293 208.926 84.2051 206.516 86.5229L206.442 86.5952L206.356 86.6528C206.058 86.8508 205.677 87.0148 205.231 87.0229C204.772 87.0313 204.363 86.8717 204.025 86.6245L203.912 86.5356C203.379 86.0771 203.313 85.4657 203.294 85.1841C203.289 85.1056 203.287 85.0279 203.286 84.9751C203.284 84.9153 203.282 84.8773 203.28 84.8442C203.279 84.8288 203.277 84.8175 203.276 84.8101L203.222 84.6724L203.212 84.4907C202.955 79.8682 202.685 75.2658 202.414 70.6626L201.607 56.8296C201.594 56.5975 201.561 56.3336 201.523 56.0132C201.487 55.7142 201.445 55.3613 201.434 55.0298V55.0288C201.428 54.8411 201.408 54.4998 201.408 54.2241C201.408 53.9412 201.424 53.55 201.547 53.1753C201.681 52.7695 201.981 52.2747 202.592 52.0425Z" fill="white" stroke="#C7C7C7" stroke-width="2.30925"/>
<defs>
<linearGradient id="paint0_linear_219_191" x1="0.489746" y1="32.8091" x2="220.973" y2="32.8091" gradientUnits="userSpaceOnUse">
<stop stop-color="#17161E"/>
<stop offset="1" stop-color="#2C2A3A"/>
</linearGradient>
</defs>
</svg>
