<svg width="198" height="198" viewBox="0 0 198 198" fill="none" xmlns="http://www.w3.org/2000/svg">
<path d="M94.7236 4.7979C171.601 2.4044 220.458 87.1162 177.331 151.379C137.15 211.252 46.9732 205.969 14.1932 141.785C-16.8944 80.9121 26.4007 6.92286 94.7236 4.7979ZM162.777 136.918C192.306 87.1831 155.034 23.1202 97.0425 24.7415L96.3374 24.7615L96.3371 24.7713C37.188 26.9416 3.14545 93.5565 37.8448 142.192C69.0402 185.911 135.427 182.983 162.777 136.918Z" fill="white" stroke="#C7C7C7" stroke-width="1.5"/>
<path d="M89.4272 41.541C91.3158 34.7267 100.895 34.1052 103.587 40.6544L103.588 40.6554C103.646 40.7983 103.823 41.3055 103.992 41.8187C104.075 42.0694 104.152 42.3098 104.207 42.493C104.233 42.5798 104.253 42.6485 104.266 42.6972L102.273 103.783L103.145 103.811L103.259 103.778L137.748 93.8558C146.63 93.3052 149.036 105.211 140.796 108.231C133.654 110.041 126.484 112.399 119.348 114.712C112.636 116.889 105.951 119.026 99.3031 120.651L97.9736 120.969C95.2106 121.616 92.9043 121.596 91.1034 120.802C89.3592 120.033 87.9648 118.481 87.0931 115.777L89.4272 41.541Z" fill="white" stroke="#C7C7C7" stroke-width="1.5"/>
</svg>
