<svg width="319" height="198" viewBox="0 0 319 198" fill="none" xmlns="http://www.w3.org/2000/svg">
<circle cx="232.612" cy="111.265" r="69.8321" transform="rotate(15.6063 232.612 111.265)" fill="#A36EF7"/>
<path d="M251.804 131.183C250.974 134.154 249.421 136.738 247.144 138.935C244.94 141.092 242.114 142.612 238.664 143.496C235.287 144.339 231.559 144.345 227.48 143.513L225.541 150.455L220.056 148.923L222.019 141.895C216.449 139.785 212.328 136.786 209.657 132.899C207.001 128.954 206.319 124.452 207.609 119.392L220.464 122.983C219.658 127.193 221.078 130.269 224.724 132.211L229.296 115.842C225.47 113.664 222.443 111.71 220.216 109.979C217.99 108.249 216.281 105.985 215.091 103.189C213.901 100.393 213.857 97.0237 214.958 93.0813C216.347 88.1105 219.251 84.5486 223.671 82.3956C228.148 80.2586 233.279 79.7515 239.063 80.8744L241.002 73.9324L246.487 75.4645L244.548 82.4065C249.906 84.3957 253.814 87.2735 256.272 91.04C258.788 94.8224 259.544 99.2835 258.54 104.423L245.598 100.808C245.89 99.1035 245.689 97.5076 244.996 96.0204C244.375 94.4922 243.309 93.2395 241.795 92.2624L237.271 108.46C241.253 110.743 244.329 112.742 246.498 114.456C248.741 116.13 250.457 118.365 251.647 121.161C252.853 123.9 252.905 127.24 251.804 131.183ZM227.638 95.9765C227.112 97.862 227.252 99.5642 228.06 101.083C228.883 102.545 230.277 103.951 232.241 105.3L236.382 90.4732C234.245 90.1844 232.402 90.5009 230.851 91.4227C229.3 92.3445 228.229 93.8625 227.638 95.9765ZM230.161 133.914C232.444 134.121 234.377 133.706 235.96 132.67C237.6 131.65 238.691 130.168 239.234 128.226C239.76 126.34 239.583 124.659 238.703 123.181C237.822 121.703 236.371 120.281 234.35 118.916L230.161 133.914Z" fill="white"/>
<g filter="url(#filter0_f_181_179)">
<circle cx="58.9242" cy="58.583" r="46.1985" transform="rotate(-18.2181 58.9242 58.583)" fill="#A36EF7"/>
<path d="M62.4567 69.057C64.1525 68.4989 65.5176 67.6374 66.5521 66.4726C67.5866 65.3077 68.2408 63.8889 68.5145 62.216L75.6548 59.866C75.6612 63.392 74.6492 66.4785 72.6186 69.1252C70.608 71.7324 67.8623 73.6089 64.3814 74.7546C60.8113 75.9296 57.3592 76.0106 54.0252 74.9976C50.7111 73.9451 48.0046 71.9836 45.9058 69.1133L42.1125 70.3617L40.8934 66.6577L43.9727 65.6443C43.6782 64.9498 43.4721 64.4241 43.3546 64.0671C43.2176 63.6506 43.0613 63.0755 42.8857 62.3419L39.8065 63.3554L38.5874 59.6514L42.4253 58.3882C42.409 54.8324 43.4264 51.6618 45.4773 48.8764C47.5579 46.0813 50.3684 44.1011 53.9088 42.9358C57.3897 41.7902 60.718 41.6839 63.8939 42.6171C67.0995 43.5404 69.7419 45.4075 71.8212 48.2184L64.6809 50.5685C63.4671 49.3853 62.1031 48.6472 60.5888 48.3542C59.0647 48.0315 57.4547 48.1492 55.7589 48.7073C53.9441 49.3047 52.4598 50.2548 51.3059 51.5579C50.1818 52.8511 49.4827 54.3837 49.2085 56.1556L57.7768 53.3355L58.9959 57.0395L49.312 60.2268C49.4875 60.9604 49.6438 61.5355 49.7809 61.952C49.8984 62.309 50.1044 62.8347 50.3989 63.5292L60.0828 60.3419L61.302 64.0459L52.689 66.8807C53.962 68.1434 55.4544 68.9711 57.1664 69.3639C58.8785 69.7566 60.6419 69.6544 62.4567 69.057Z" fill="white"/>
</g>
<defs>
<filter id="filter0_f_181_179" x="8.71289" y="8.37207" width="100.422" height="100.422" filterUnits="userSpaceOnUse" color-interpolation-filters="sRGB">
<feFlood flood-opacity="0" result="BackgroundImageFix"/>
<feBlend mode="normal" in="SourceGraphic" in2="BackgroundImageFix" result="shape"/>
<feGaussianBlur stdDeviation="2" result="effect1_foregroundBlur_181_179"/>
</filter>
</defs>
</svg>
