<svg width="125" height="125" viewBox="0 0 125 125" fill="none" xmlns="http://www.w3.org/2000/svg">
<g clip-path="url(#clip0_39_304)">
<path d="M62.5 125C97.0178 125 125 97.0178 125 62.5C125 27.9822 97.0178 0 62.5 0C27.9822 0 0 27.9822 0 62.5C0 97.0178 27.9822 125 62.5 125Z" fill="#F0F0F0"/>
<path d="M59.7832 62.5H125C125 56.8589 124.249 51.394 122.847 46.1956H59.7832V62.5Z" fill="#D80027"/>
<path d="M59.7832 29.8914H115.827C112.001 23.6482 107.109 18.1299 101.406 13.5869H59.7832V29.8914Z" fill="#D80027"/>
<path d="M62.5005 125C77.2097 125 90.7295 119.916 101.406 111.413H23.5952C34.2715 119.916 47.7913 125 62.5005 125Z" fill="#D80027"/>
<path d="M9.17358 95.1086H115.827C118.898 90.0967 121.281 84.6182 122.847 78.8042H2.15332C3.71997 84.6182 6.10205 90.0967 9.17358 95.1086Z" fill="#D80027"/>
<path d="M28.9512 9.76025H34.6467L29.3489 13.6091L31.3726 19.8369L26.075 15.988L20.7773 19.8369L22.5254 14.4568C17.8608 18.3423 13.7725 22.8945 10.4033 27.9668H12.2283L8.85596 30.4167C8.33057 31.2932 7.82666 32.1836 7.34375 33.0872L8.9541 38.0435L5.94971 35.8606C5.20288 37.4429 4.51978 39.0608 3.90576 40.7124L5.67993 46.1733H12.2283L6.93042 50.0222L8.9541 56.25L3.65649 52.4011L0.483154 54.7068C0.165527 57.26 0 59.8606 0 62.5H62.5C62.5 27.9824 62.5 23.9131 62.5 0C50.1533 0 38.6438 3.58154 28.9512 9.76025ZM31.3726 56.25L26.075 52.4011L20.7773 56.25L22.801 50.0222L17.5032 46.1733H24.0515L26.075 39.9456L28.0984 46.1733H34.6467L29.3489 50.0222L31.3726 56.25ZM29.3489 31.8157L31.3726 38.0435L26.075 34.1946L20.7773 38.0435L22.801 31.8157L17.5032 27.9668H24.0515L26.075 21.739L28.0984 27.9668H34.6467L29.3489 31.8157ZM53.791 56.25L48.4934 52.4011L43.1958 56.25L45.2195 50.0222L39.9216 46.1733H46.47L48.4934 39.9456L50.5168 46.1733H57.0652L51.7673 50.0222L53.791 56.25ZM51.7673 31.8157L53.791 38.0435L48.4934 34.1946L43.1958 38.0435L45.2195 31.8157L39.9216 27.9668H46.47L48.4934 21.739L50.5168 27.9668H57.0652L51.7673 31.8157ZM51.7673 13.6091L53.791 19.8369L48.4934 15.988L43.1958 19.8369L45.2195 13.6091L39.9216 9.76025H46.47L48.4934 3.53247L50.5168 9.76025H57.0652L51.7673 13.6091Z" fill="#0052B4"/>
</g>
<defs>
<clipPath id="clip0_39_304">
<rect width="125" height="125" fill="white"/>
</clipPath>
</defs>
</svg>
