<svg width="440" height="210" viewBox="0 0 440 210" fill="none" xmlns="http://www.w3.org/2000/svg">
<path d="M5.71688 136.23L11.716 141.264C13.2481 142.55 15.5594 142.207 16.6527 140.533L21.9687 132.39C23.1589 130.567 25.7486 130.355 27.22 131.96L36.2185 141.775C37.7444 143.439 40.4485 143.138 41.571 141.179L49.7031 126.984C50.9471 124.813 54.0502 124.734 55.403 126.839L63.6656 139.696C64.3095 140.698 65.439 141.281 66.6288 141.225L72.1836 140.962C73.8559 140.883 75.2105 139.577 75.35 137.908L76.1586 128.235C76.2569 127.059 76.9693 126.023 78.032 125.51L86.1169 121.605C87.4478 120.963 89.0428 121.273 90.0364 122.367L93.4552 126.131C94.9234 127.748 97.5233 127.541 98.7171 125.712L110.183 108.15C110.39 107.833 110.541 107.482 110.631 107.114L120.22 67.6337C120.569 66.1952 121.825 65.1591 123.303 65.0892L124.895 65.0141C126.391 64.9434 127.657 63.8835 127.99 62.4227L132.851 41.0668C133.581 37.8572 138.026 37.5339 139.214 40.6041L145.049 55.6926C146.157 58.5577 150.221 58.5285 151.287 55.6478L154.542 46.8561C155.34 44.7022 158.319 44.5283 159.362 46.5747V46.5747C160.365 48.544 163.202 48.4775 164.112 46.4632L169.428 34.6957C170.555 32.2021 174.039 32.0512 175.377 34.438L180.176 42.9995C180.93 44.3432 182.505 44.9963 183.988 44.5796L191.091 42.5834C192.094 42.3018 193.17 42.5043 194.001 43.131L201.634 48.8849C202.202 49.3125 202.618 49.91 202.822 50.5904L210.776 77.1189C211.707 80.2236 216.072 80.3102 217.125 77.2449L221.107 65.6566C221.926 63.272 224.993 62.624 226.707 64.4732L228.853 66.7882C229.522 67.5095 230.474 67.8989 231.457 67.8526L243.31 67.2928C244.38 67.2423 245.346 66.6348 245.854 65.6919V65.6919C247.151 63.2876 250.711 63.6649 251.475 66.2877L254.311 76.0218C254.742 77.5016 256.131 78.4933 257.67 78.4206L260.04 78.3087C261.554 78.2372 262.926 79.1956 263.38 80.6417L270.028 101.831C270.743 104.107 273.546 104.919 275.367 103.377L278.767 100.497C279.389 99.9699 279.797 99.233 279.913 98.4257L282.041 83.5901" stroke="#56E686" stroke-width="3.33533" stroke-linecap="round"/>
<circle cx="340.665" cy="99.131" r="83.4799" transform="rotate(4.51829 340.665 99.131)" fill="white" stroke="#C7C7C7" stroke-width="1.81262"/>
<mask id="path-3-outside-1_219_180" maskUnits="userSpaceOnUse" x="307.673" y="47.8279" width="67.6125" height="103.419" fill="black">
<rect fill="white" x="307.673" y="47.8279" width="67.6125" height="103.419"/>
<path d="M368.11 117.578C367.816 121.294 366.575 124.719 364.386 127.854C362.273 130.923 359.274 133.383 355.389 135.233C351.58 137.018 347.161 137.891 342.13 137.853L341.444 146.536L334.584 145.994L335.278 137.204C328.183 135.996 322.599 133.397 318.528 129.408C314.462 125.347 312.606 120.167 312.961 113.867L329.04 115.138C329.062 120.317 331.461 123.635 336.235 125.091L337.853 104.616C332.81 102.923 328.766 101.309 325.724 99.7744C322.681 98.2396 320.129 95.9526 318.068 92.9133C316.007 89.874 315.171 85.8889 315.561 80.9579C316.052 74.7405 318.669 69.8417 323.41 66.2613C328.223 62.6866 334.189 60.8929 341.309 60.8803L341.996 52.1974L348.856 52.7395L348.17 61.4224C354.985 62.5362 360.289 65.0407 364.08 68.9358C367.942 72.8365 369.875 77.9511 369.878 84.2794L353.692 83.0003C353.641 80.9109 353.032 79.065 351.864 77.4626C350.774 75.7944 349.217 74.5569 347.196 73.7499L345.595 94.0099C350.847 95.7913 354.959 97.4465 357.931 98.9757C360.979 100.439 363.534 102.69 365.595 105.73C367.661 108.697 368.5 112.647 368.11 117.578ZM331.271 81.4443C331.085 83.8026 331.647 85.7886 332.957 87.4023C334.274 88.9445 336.253 90.2874 338.895 91.431L340.361 72.8862C337.76 73.0402 335.647 73.844 334.022 75.2976C332.397 76.7512 331.48 78.8001 331.271 81.4443ZM343.079 125.847C345.834 125.561 348.03 124.62 349.666 123.024C351.374 121.433 352.324 119.423 352.516 116.993C352.702 114.634 352.101 112.681 350.714 111.133C349.326 109.586 347.275 108.237 344.561 107.088L343.079 125.847Z"/>
</mask>
<path d="M368.11 117.578C367.816 121.294 366.575 124.719 364.386 127.854C362.273 130.923 359.274 133.383 355.389 135.233C351.58 137.018 347.161 137.891 342.13 137.853L341.444 146.536L334.584 145.994L335.278 137.204C328.183 135.996 322.599 133.397 318.528 129.408C314.462 125.347 312.606 120.167 312.961 113.867L329.04 115.138C329.062 120.317 331.461 123.635 336.235 125.091L337.853 104.616C332.81 102.923 328.766 101.309 325.724 99.7744C322.681 98.2396 320.129 95.9526 318.068 92.9133C316.007 89.874 315.171 85.8889 315.561 80.9579C316.052 74.7405 318.669 69.8417 323.41 66.2613C328.223 62.6866 334.189 60.8929 341.309 60.8803L341.996 52.1974L348.856 52.7395L348.17 61.4224C354.985 62.5362 360.289 65.0407 364.08 68.9358C367.942 72.8365 369.875 77.9511 369.878 84.2794L353.692 83.0003C353.641 80.9109 353.032 79.065 351.864 77.4626C350.774 75.7944 349.217 74.5569 347.196 73.7499L345.595 94.0099C350.847 95.7913 354.959 97.4465 357.931 98.9757C360.979 100.439 363.534 102.69 365.595 105.73C367.661 108.697 368.5 112.647 368.11 117.578ZM331.271 81.4443C331.085 83.8026 331.647 85.7886 332.957 87.4023C334.274 88.9445 336.253 90.2874 338.895 91.431L340.361 72.8862C337.76 73.0402 335.647 73.844 334.022 75.2976C332.397 76.7512 331.48 78.8001 331.271 81.4443ZM343.079 125.847C345.834 125.561 348.03 124.62 349.666 123.024C351.374 121.433 352.324 119.423 352.516 116.993C352.702 114.634 352.101 112.681 350.714 111.133C349.326 109.586 347.275 108.237 344.561 107.088L343.079 125.847Z" fill="white"/>
<path d="M364.386 127.854L362.899 126.816L362.892 126.827L364.386 127.854ZM355.389 135.233L356.158 136.875L356.168 136.87L355.389 135.233ZM342.13 137.853L342.144 136.04L340.456 136.028L340.323 137.71L342.13 137.853ZM341.444 146.536L341.301 148.343L343.108 148.486L343.251 146.679L341.444 146.536ZM334.584 145.994L332.777 145.851L332.634 147.658L334.441 147.801L334.584 145.994ZM335.278 137.204L337.085 137.346L337.216 135.695L335.582 135.417L335.278 137.204ZM318.528 129.408L317.247 130.691L317.253 130.697L317.259 130.703L318.528 129.408ZM312.961 113.867L313.103 112.06L311.255 111.914L311.151 113.765L312.961 113.867ZM329.04 115.138L330.852 115.13L330.845 113.462L329.183 113.331L329.04 115.138ZM336.235 125.091L335.707 126.824L337.865 127.482L338.042 125.233L336.235 125.091ZM337.853 104.616L339.66 104.759L339.772 103.348L338.43 102.898L337.853 104.616ZM325.724 99.7744L326.54 98.1561L325.724 99.7744ZM318.068 92.9133L316.568 93.9306L316.568 93.9306L318.068 92.9133ZM323.41 66.2613L322.329 64.8062L322.324 64.8104L322.318 64.8148L323.41 66.2613ZM341.309 60.8803L341.313 62.6929L342.985 62.6899L343.116 61.0231L341.309 60.8803ZM341.996 52.1974L342.138 50.3904L340.331 50.2476L340.189 52.0546L341.996 52.1974ZM348.856 52.7395L350.663 52.8823L350.806 51.0754L348.999 50.9326L348.856 52.7395ZM348.17 61.4224L346.363 61.2796L346.232 62.9423L347.878 63.2113L348.17 61.4224ZM364.08 68.9358L362.781 70.2001L362.786 70.2057L362.792 70.2112L364.08 68.9358ZM369.878 84.2794L369.736 86.0864L371.692 86.241L371.691 84.2785L369.878 84.2794ZM353.692 83.0003L351.88 83.0442L351.919 84.6785L353.549 84.8073L353.692 83.0003ZM351.864 77.4626L350.347 78.4545L350.372 78.493L350.399 78.5302L351.864 77.4626ZM347.196 73.7499L347.868 72.0664L345.583 71.1543L345.389 73.6071L347.196 73.7499ZM345.595 94.0099L343.788 93.8671L343.677 95.2734L345.013 95.7265L345.595 94.0099ZM357.931 98.9757L357.101 100.587L357.123 100.599L357.146 100.61L357.931 98.9757ZM365.595 105.73L364.094 106.747L364.101 106.756L364.107 106.765L365.595 105.73ZM332.957 87.4023L331.55 88.5451L331.564 88.5622L331.579 88.579L332.957 87.4023ZM338.895 91.431L338.175 93.0945L340.502 94.1018L340.702 91.5738L338.895 91.431ZM340.361 72.8862L342.168 73.029L342.332 70.9537L340.254 71.0767L340.361 72.8862ZM343.079 125.847L341.272 125.704L341.1 127.874L343.266 127.65L343.079 125.847ZM349.666 123.024L348.431 121.697L348.415 121.712L348.4 121.726L349.666 123.024ZM350.714 111.133L349.364 112.344L350.714 111.133ZM344.561 107.088L345.268 105.419L342.953 104.438L342.754 106.945L344.561 107.088ZM368.11 117.578L366.303 117.435C366.035 120.821 364.909 123.939 362.899 126.816L364.386 127.854L365.872 128.892C368.241 125.5 369.597 121.767 369.917 117.721L368.11 117.578ZM364.386 127.854L362.892 126.827C360.987 129.595 358.253 131.862 354.61 133.597L355.389 135.233L356.168 136.87C360.296 134.904 363.56 132.251 365.879 128.882L364.386 127.854ZM355.389 135.233L354.62 133.592C351.1 135.241 346.957 136.077 342.144 136.04L342.13 137.853L342.117 139.666C347.365 139.705 352.061 138.794 356.158 136.875L355.389 135.233ZM342.13 137.853L340.323 137.71L339.637 146.393L341.444 146.536L343.251 146.679L343.937 137.996L342.13 137.853ZM341.444 146.536L341.587 144.729L334.726 144.187L334.584 145.994L334.441 147.801L341.301 148.343L341.444 146.536ZM334.584 145.994L336.391 146.136L337.085 137.346L335.278 137.204L333.471 137.061L332.777 145.851L334.584 145.994ZM335.278 137.204L335.582 135.417C328.755 134.254 323.542 131.783 319.797 128.113L318.528 129.408L317.259 130.703C321.656 135.011 327.61 137.737 334.974 138.991L335.278 137.204ZM318.528 129.408L319.809 128.126C316.147 124.468 314.442 119.81 314.77 113.969L312.961 113.867L311.151 113.765C310.771 120.524 312.778 126.227 317.247 130.691L318.528 129.408ZM312.961 113.867L312.818 115.674L328.897 116.945L329.04 115.138L329.183 113.331L313.103 112.06L312.961 113.867ZM329.04 115.138L327.227 115.145C327.24 118.013 327.913 120.534 329.386 122.572C330.865 124.617 333.026 126.007 335.707 126.824L336.235 125.091L336.764 123.357C334.67 122.718 333.245 121.721 332.324 120.448C331.4 119.169 330.862 117.442 330.852 115.13L329.04 115.138ZM336.235 125.091L338.042 125.233L339.66 104.759L337.853 104.616L336.046 104.473L334.428 124.948L336.235 125.091ZM337.853 104.616L338.43 102.898C333.428 101.219 329.475 99.6366 326.54 98.1561L325.724 99.7744L324.907 101.393C328.058 102.982 332.191 104.627 337.277 106.335L337.853 104.616ZM325.724 99.7744L326.54 98.1561C323.794 96.7708 321.47 94.7004 319.568 91.896L318.068 92.9133L316.568 93.9306C318.788 97.2048 321.568 99.7084 324.907 101.393L325.724 99.7744ZM318.068 92.9133L319.568 91.896C317.807 89.2991 317 85.7634 317.368 81.1007L315.561 80.9579L313.754 80.8151C313.343 86.0144 314.207 90.449 316.568 93.9306L318.068 92.9133ZM315.561 80.9579L317.368 81.1007C317.821 75.371 320.198 70.9586 324.502 67.7078L323.41 66.2613L322.318 64.8148C317.14 68.7248 314.284 74.1101 313.754 80.8151L315.561 80.9579ZM323.41 66.2613L324.491 67.7164C328.937 64.4143 334.506 62.705 341.313 62.6929L341.309 60.8803L341.306 59.0676C333.873 59.0808 327.509 60.9589 322.329 64.8062L323.41 66.2613ZM341.309 60.8803L343.116 61.0231L343.803 52.3402L341.996 52.1974L340.189 52.0546L339.502 60.7375L341.309 60.8803ZM341.996 52.1974L341.853 54.0044L348.713 54.5465L348.856 52.7395L348.999 50.9326L342.138 50.3904L341.996 52.1974ZM348.856 52.7395L347.049 52.5968L346.363 61.2796L348.17 61.4224L349.977 61.5652L350.663 52.8823L348.856 52.7395ZM348.17 61.4224L347.878 63.2113C354.414 64.2796 359.326 66.6504 362.781 70.2001L364.08 68.9358L365.379 67.6715C361.251 63.431 355.556 60.7929 348.462 59.6335L348.17 61.4224ZM364.08 68.9358L362.792 70.2112C366.267 73.7205 368.063 78.3504 368.066 84.2804L369.878 84.2794L371.691 84.2785C371.687 77.5517 369.618 71.9525 365.368 67.6604L364.08 68.9358ZM369.878 84.2794L370.021 82.4724L353.835 81.1933L353.692 83.0003L353.549 84.8073L369.736 86.0864L369.878 84.2794ZM353.692 83.0003L355.504 82.9564C355.445 80.5195 354.726 78.3121 353.329 76.3951L351.864 77.4626L350.399 78.5302C351.338 79.818 351.838 81.3023 351.88 83.0442L353.692 83.0003ZM351.864 77.4626L353.381 76.4707C352.068 74.4618 350.202 72.9982 347.868 72.0664L347.196 73.7499L346.524 75.4334C348.233 76.1155 349.479 77.1271 350.347 78.4545L351.864 77.4626ZM347.196 73.7499L345.389 73.6071L343.788 93.8671L345.595 94.0099L347.402 94.1527L349.003 73.8927L347.196 73.7499ZM345.595 94.0099L345.013 95.7265C350.228 97.4952 354.244 99.1172 357.101 100.587L357.931 98.9757L358.76 97.364C355.674 95.7759 351.467 94.0873 346.177 92.2933L345.595 94.0099ZM357.931 98.9757L357.146 100.61C359.881 101.923 362.197 103.949 364.094 106.747L365.595 105.73L367.095 104.712C364.87 101.431 362.077 98.9555 358.715 97.3416L357.931 98.9757ZM365.595 105.73L364.107 106.765C365.859 109.281 366.672 112.769 366.303 117.435L368.11 117.578L369.917 117.721C370.328 112.525 369.463 108.114 367.082 104.694L365.595 105.73ZM331.271 81.4443L329.464 81.3015C329.246 84.0547 329.905 86.5197 331.55 88.5451L332.957 87.4023L334.364 86.2595C333.388 85.0575 332.923 83.5505 333.078 81.5871L331.271 81.4443ZM332.957 87.4023L331.579 88.579C333.134 90.4009 335.379 91.8841 338.175 93.0945L338.895 91.431L339.615 89.7676C337.127 88.6907 335.414 87.4881 334.336 86.2255L332.957 87.4023ZM338.895 91.431L340.702 91.5738L342.168 73.029L340.361 72.8862L338.554 72.7434L337.088 91.2883L338.895 91.431ZM340.361 72.8862L340.254 71.0767C337.327 71.25 334.8 72.1699 332.813 73.9467L334.022 75.2976L335.23 76.6486C336.494 75.5182 338.193 74.8304 340.468 74.6956L340.361 72.8862ZM334.022 75.2976L332.813 73.9467C330.769 75.7756 329.701 78.2991 329.464 81.3015L331.271 81.4443L333.078 81.5871C333.259 79.3011 334.025 77.7268 335.23 76.6486L334.022 75.2976ZM343.079 125.847L343.266 127.65C346.339 127.331 348.945 126.26 350.932 124.321L349.666 123.024L348.4 121.726C347.114 122.981 345.33 123.791 342.892 124.044L343.079 125.847ZM349.666 123.024L350.902 124.35C352.957 122.435 354.097 119.995 354.323 117.136L352.516 116.993L350.709 116.85C350.551 118.85 349.791 120.43 348.431 121.697L349.666 123.024ZM352.516 116.993L354.323 117.136C354.542 114.357 353.829 111.893 352.063 109.923L350.714 111.133L349.364 112.344C350.374 113.47 350.862 114.911 350.709 116.85L352.516 116.993ZM350.714 111.133L352.063 109.923C350.439 108.112 348.132 106.631 345.268 105.419L344.561 107.088L343.854 108.757C346.418 109.843 348.212 111.059 349.364 112.344L350.714 111.133ZM344.561 107.088L342.754 106.945L341.272 125.704L343.079 125.847L344.886 125.99L346.368 107.231L344.561 107.088Z" fill="#C7C7C7" mask="url(#path-3-outside-1_219_180)"/>
</svg>
