<svg width="222" height="173" viewBox="0 0 222 173" fill="none" xmlns="http://www.w3.org/2000/svg">
<path d="M60.7774 135.5L60.7773 133.63C60.7771 130.14 59.3906 126.793 56.9227 124.325L19.0089 86.4111C16.5409 83.943 15.1543 80.5956 15.1543 77.1053L15.1543 37.8112" stroke="url(#paint0_linear_431_1190)" stroke-width="0.87736"/>
<rect x="27.7864" y="15.2603" width="24.4838" height="25.5257" rx="6.51165" transform="rotate(90 27.7864 15.2603)" fill="url(#paint1_linear_431_1190)" stroke="#625D81" stroke-width="0.520932"/>
<g filter="url(#filter0_d_431_1190)">
<path d="M15.5595 20.7021L16.4091 20.8204C21.3183 21.7782 23.5954 27.6258 20.4918 31.6423C16.8923 36.3008 9.53573 34.462 8.43202 28.771L8.31827 27.9434C8.33156 27.6473 8.3002 27.3358 8.31827 27.0416C8.52424 23.6994 11.3147 20.9084 14.6575 20.7021H15.5592H15.5595ZM14.9174 22.7791C13.076 22.921 12.0541 25.0147 13.0818 26.5617C14.0401 28.0045 16.1984 27.9971 17.1458 26.5457C18.2511 24.8526 16.9221 22.6247 14.9174 22.7791ZM12.7956 27.79C12.3924 27.8118 11.8141 28.4919 11.5856 28.8103C11.3126 29.1903 10.8505 30.0676 10.8901 30.5306C10.9243 30.9319 11.6584 31.5391 11.9815 31.7733C13.8501 33.126 16.3475 33.1361 18.2203 31.7844C18.5177 31.57 19.2741 30.9369 19.3235 30.5803C19.4279 29.8298 18.4802 28.5041 17.9203 28.0359C17.2729 27.4942 17.0098 28.0003 16.4177 28.2578C15.4816 28.6652 14.4074 28.6062 13.5163 28.1161C13.283 27.9878 13.0887 27.7741 12.7956 27.79Z" fill="#8D86BB"/>
</g>
<path d="M157 152.5L157 117.883C157 114.076 158.512 110.425 161.204 107.733L202.557 66.3803C205.249 63.6884 206.761 60.0373 206.761 56.2304L206.761 13.3721" stroke="url(#paint2_linear_431_1190)" stroke-width="0.956941"/>
<rect x="220.841" y="4.28409" width="26.7046" height="27.841" rx="7.1023" transform="rotate(90 220.841 4.28409)" fill="url(#paint3_linear_431_1190)" stroke="#625D81" stroke-width="0.568184"/>
<g filter="url(#filter1_d_431_1190)">
<path d="M212.411 20.8178C212.411 21.5243 212.228 22.1901 211.861 22.815C211.507 23.4264 210.978 23.9359 210.271 24.3435C209.578 24.7376 208.756 24.9685 207.805 25.0365V26.6872H206.501V25.0161C205.142 24.8938 204.048 24.4862 203.22 23.7933C202.391 23.0868 201.963 22.1357 201.936 20.9401H204.993C205.074 21.9183 205.577 22.5093 206.501 22.7131V18.8206C205.522 18.576 204.734 18.3314 204.137 18.0869C203.539 17.8423 203.023 17.4483 202.588 16.9048C202.153 16.3614 201.936 15.6209 201.936 14.6834C201.936 13.5014 202.357 12.5367 203.199 11.7895C204.055 11.0422 205.156 10.6142 206.501 10.5055V8.85475H207.805V10.5055C209.109 10.6142 210.149 11.0082 210.923 11.6876C211.711 12.3669 212.153 13.3044 212.248 14.5H209.171C209.13 14.106 208.987 13.7663 208.743 13.481C208.512 13.1821 208.199 12.9715 207.805 12.8492V16.701C208.824 16.9592 209.626 17.2105 210.21 17.4551C210.808 17.6861 211.324 18.0733 211.759 18.6168C212.194 19.1466 212.411 19.8803 212.411 20.8178ZM204.911 14.5408C204.911 14.9891 205.047 15.356 205.319 15.6413C205.59 15.913 205.984 16.1372 206.501 16.3138V12.7881C206.012 12.856 205.624 13.0394 205.339 13.3383C205.054 13.6373 204.911 14.0381 204.911 14.5408ZM207.805 22.7539C208.321 22.6588 208.722 22.4482 209.007 22.1221C209.306 21.796 209.456 21.402 209.456 20.9401C209.456 20.4917 209.313 20.1317 209.028 19.8599C208.743 19.5882 208.335 19.364 207.805 19.1874V22.7539Z" fill="#8D86BB"/>
</g>
<line x1="108.501" y1="62.1306" x2="108.501" y2="173" stroke="url(#paint4_linear_431_1190)" stroke-width="1.08696"/>
<rect x="120.982" y="48.2523" width="23.7181" height="24.7273" rx="6.308" transform="rotate(90 120.982 48.2523)" fill="url(#paint5_linear_431_1190)" stroke="#625D81" stroke-width="0.50464"/>
<g filter="url(#filter2_d_431_1190)">
<path d="M106.646 68.4435C106.461 67.5495 106.236 66.6541 106.177 65.7399L105.85 65.789L105.56 65.6751C104.854 64.9345 103.952 64.2142 103.295 63.4402C103.217 63.3486 103.074 63.1628 103.057 63.0464C103.029 62.8586 103.146 62.7042 103.181 62.5311L100.521 62.2208C100.128 62.1312 100.526 61.9009 100.642 61.7723C101.206 61.1502 101.754 60.4461 102.335 59.8503C102.49 59.6908 102.547 59.6144 102.79 59.623C103.23 59.6387 103.806 59.8255 104.264 59.8938C104.366 59.909 104.681 59.9738 104.75 59.9394C106.382 57.6868 108.465 55.7542 111.002 54.5631C111.957 54.1146 113.358 53.6069 114.4 53.4621C115.209 53.3497 115.458 53.574 115.33 54.392C115.264 54.8131 115.124 55.3502 115.011 55.7663C114.073 59.2064 111.65 62.0457 108.818 64.1084C108.786 64.1464 108.793 64.1884 108.797 64.2334C108.846 64.8141 109.11 65.4929 109.172 66.0861C109.188 66.2861 108.957 66.4577 108.82 66.5878C108.256 67.1264 107.595 67.7282 107.001 68.2309C106.938 68.2835 106.722 68.4951 106.648 68.4435L106.646 68.4435ZM109.596 57.5825C107.756 57.7901 107.957 60.7174 109.99 60.5048C111.842 60.3109 111.629 57.3527 109.596 57.5825Z" fill="#8D86BB"/>
</g>
<defs>
<filter id="filter0_d_431_1190" x="0.854944" y="13.2446" width="28.5128" height="28.4979" filterUnits="userSpaceOnUse" color-interpolation-filters="sRGB">
<feFlood flood-opacity="0" result="BackgroundImageFix"/>
<feColorMatrix in="SourceAlpha" type="matrix" values="0 0 0 0 0 0 0 0 0 0 0 0 0 0 0 0 0 0 127 0" result="hardAlpha"/>
<feOffset/>
<feGaussianBlur stdDeviation="3.72878"/>
<feComposite in2="hardAlpha" operator="out"/>
<feColorMatrix type="matrix" values="0 0 0 0 0.639216 0 0 0 0 0.431373 0 0 0 0 0.968627 0 0 0 0.5 0"/>
<feBlend mode="normal" in2="BackgroundImageFix" result="effect1_dropShadow_431_1190"/>
<feBlend mode="normal" in="SourceGraphic" in2="effect1_dropShadow_431_1190" result="shape"/>
</filter>
<filter id="filter1_d_431_1190" x="193.804" y="0.720737" width="26.7407" height="34.1005" filterUnits="userSpaceOnUse" color-interpolation-filters="sRGB">
<feFlood flood-opacity="0" result="BackgroundImageFix"/>
<feColorMatrix in="SourceAlpha" type="matrix" values="0 0 0 0 0 0 0 0 0 0 0 0 0 0 0 0 0 0 127 0" result="hardAlpha"/>
<feOffset/>
<feGaussianBlur stdDeviation="4.067"/>
<feComposite in2="hardAlpha" operator="out"/>
<feColorMatrix type="matrix" values="0 0 0 0 0.639216 0 0 0 0 0.431373 0 0 0 0 0.968627 0 0 0 0.5 0"/>
<feBlend mode="normal" in2="BackgroundImageFix" result="effect1_dropShadow_431_1190"/>
<feBlend mode="normal" in="SourceGraphic" in2="effect1_dropShadow_431_1190" result="shape"/>
</filter>
<filter id="filter2_d_431_1190" x="92.782" y="45.8655" width="30.1509" height="30.1555" filterUnits="userSpaceOnUse" color-interpolation-filters="sRGB">
<feFlood flood-opacity="0" result="BackgroundImageFix"/>
<feColorMatrix in="SourceAlpha" type="matrix" values="0 0 0 0 0 0 0 0 0 0 0 0 0 0 0 0 0 0 127 0" result="hardAlpha"/>
<feOffset/>
<feGaussianBlur stdDeviation="3.7848"/>
<feComposite in2="hardAlpha" operator="out"/>
<feColorMatrix type="matrix" values="0 0 0 0 0.639216 0 0 0 0 0.431373 0 0 0 0 0.968627 0 0 0 0.5 0"/>
<feBlend mode="normal" in2="BackgroundImageFix" result="effect1_dropShadow_431_1190"/>
<feBlend mode="normal" in="SourceGraphic" in2="effect1_dropShadow_431_1190" result="shape"/>
</filter>
<linearGradient id="paint0_linear_431_1190" x1="37.966" y1="37.8117" x2="37.966" y2="207.581" gradientUnits="userSpaceOnUse">
<stop stop-color="#3B384D"/>
<stop offset="0.514423" stop-color="#3B384D" stop-opacity="0"/>
</linearGradient>
<linearGradient id="paint1_linear_431_1190" x1="28.0469" y1="28.0232" x2="53.0516" y2="28.0232" gradientUnits="userSpaceOnUse">
<stop stop-color="#16151D"/>
<stop offset="1" stop-color="#2C2A3B"/>
</linearGradient>
<linearGradient id="paint2_linear_431_1190" x1="181.88" y1="13.3721" x2="181.88" y2="129" gradientUnits="userSpaceOnUse">
<stop stop-color="#3B384D"/>
<stop offset="1" stop-color="#3B384D" stop-opacity="0"/>
</linearGradient>
<linearGradient id="paint3_linear_431_1190" x1="221.125" y1="18.2046" x2="248.398" y2="18.2046" gradientUnits="userSpaceOnUse">
<stop stop-color="#16151D"/>
<stop offset="1" stop-color="#2C2A3B"/>
</linearGradient>
<linearGradient id="paint4_linear_431_1190" x1="107.457" y1="62.1306" x2="107.457" y2="136" gradientUnits="userSpaceOnUse">
<stop stop-color="#3B384D"/>
<stop offset="1" stop-color="#3B384D" stop-opacity="0"/>
</linearGradient>
<linearGradient id="paint5_linear_431_1190" x1="121.234" y1="60.616" x2="145.457" y2="60.616" gradientUnits="userSpaceOnUse">
<stop stop-color="#16151D"/>
<stop offset="1" stop-color="#2C2A3B"/>
</linearGradient>
</defs>
</svg>
