<svg width="225" height="356" viewBox="0 0 225 356" fill="none" xmlns="http://www.w3.org/2000/svg">
<g clip-path="url(#clip0_39_138)">
<path d="M192.023 175.858C171.656 155.484 143.515 142.892 112.432 142.892C81.3482 142.892 53.2143 155.492 32.8403 175.858C12.4809 196.225 -0.118652 224.366 -0.118652 255.45C-0.118652 317.609 50.2796 368.007 112.439 368.007C143.522 368.007 171.656 355.408 192.03 335.041C212.404 314.674 224.996 286.533 224.996 255.45C224.996 224.366 212.397 196.233 192.03 175.858H192.023ZM126.414 266.144L130.246 289.725C130.849 293.418 127.995 296.772 124.251 296.772H100.626C96.8678 296.772 94.0066 293.388 94.6392 289.681L98.633 266.247C90.226 261.444 84.5624 252.397 84.5624 242.019C84.5624 226.624 97.0443 214.135 112.439 214.135C127.833 214.135 140.315 226.617 140.315 242.019C140.315 252.324 134.725 261.319 126.414 266.144Z" fill="#252330"/>
<path d="M172.384 77.9454C172.384 84.4842 167.081 89.7873 160.542 89.7873C154.004 89.7873 148.7 84.4842 148.7 77.9454C148.7 57.9464 132.431 41.6766 112.432 41.6766C92.4327 41.6766 76.1629 57.9464 76.1629 77.9454V126.637C67.8809 129.131 59.9519 132.455 52.4863 136.523V77.9454C52.4863 44.8908 79.3845 18 112.439 18C145.494 18 172.384 44.8908 172.384 77.9454Z" fill="#252330"/>
</g>
<defs>
<clipPath id="clip0_39_138">
<rect width="225" height="356" fill="white"/>
</clipPath>
</defs>
</svg>
