<svg width="283" height="301" viewBox="0 0 283 301" fill="none" xmlns="http://www.w3.org/2000/svg">
<path d="M241.538 0.661102C233.434 -0.667888 225.131 0.0888183 217.392 2.86199C209.653 5.63577 202.727 10.3366 197.253 16.5318C186.805 28.3904 183.554 43.8297 186.063 59.3003C188.336 73.2525 191.351 87.4131 192.029 100.854C192.978 121.099 189.936 141.331 183.081 160.372C176.878 177.601 168.041 190.962 149.102 193.919C147.698 194.143 142.584 194.303 141.132 194.382C139.681 194.462 135.088 194.159 133.667 193.935C114.729 190.978 105.812 177.617 99.6254 160.276C92.7706 141.235 89.7283 121.002 90.677 100.758C91.3559 87.3653 94.3704 73.1888 96.643 59.2047C99.1522 43.7335 95.9012 28.2948 85.4534 16.4356C79.9618 10.2453 73.0192 5.55491 65.2658 2.79767C57.5121 0.0410381 49.1979 -0.693623 41.09 0.661102C16.8015 4.67319 0.6249 26.5044 0.482861 49.4073C0.41508 58.2317 2.78182 66.8998 7.31651 74.4357C14.8761 87.0614 27.2807 96.2675 38.1072 105.825C45.2723 112.218 57.6612 130.357 63.7374 150.015C67.4144 161.922 70.4132 173.989 73.3798 186.168C77.5464 203.141 83.2752 240.635 87.0472 257.656C94.5755 291.73 117.617 299.45 140.706 300.233H141.527C164.616 299.45 188.037 291.714 195.564 257.64C199.321 240.619 205.034 203.109 209.232 186.152C212.215 174.037 215.198 161.906 218.875 149.999C224.951 130.342 237.34 112.138 244.505 105.809C255.331 96.2191 267.72 87.0455 275.295 74.4198C279.83 66.8839 282.197 58.2158 282.129 49.3914C282.003 26.4407 265.889 4.59293 241.538 0.661102Z" fill="#333243"/>
</svg>
