<svg width="196" height="46" viewBox="0 0 196 46" fill="none" xmlns="http://www.w3.org/2000/svg">
<path fill-rule="evenodd" clip-rule="evenodd" d="M28.4921 0.550992C29.3855 0.297729 30.3353 0.164062 31.3132 0.164062C37.0116 0.164062 41.6336 4.78611 41.6336 10.4845C41.6336 13.3619 40.4517 15.9649 38.5593 17.8362L11.3757 45.0198L16.0681 27.3336L0 31.639L18.4952 13.1438L0 8.18406L28.4921 0.550992ZM31.3132 18.4623C32.7483 18.4623 34.0991 18.0824 35.2669 17.4141C35.0418 17.4282 34.8096 17.4352 34.5845 17.4352C28.8861 17.4352 24.264 12.8131 24.264 7.11473C24.264 6.98106 24.264 6.84739 24.271 6.72076C23.6731 7.83934 23.3354 9.11972 23.3354 10.4775C23.3354 14.8885 26.9092 18.4623 31.3202 18.4623H31.3132Z" fill="url(#paint0_linear_39_100)"/>
<path d="M65.7191 9.11147C72.5917 9.11147 78.1357 14.581 78.1357 21.3045C78.1357 28.0281 72.5917 33.4603 65.7191 33.4603C58.8466 33.4603 53.3398 27.9908 53.3398 21.3045C53.3398 14.6182 58.9211 9.11147 65.7191 9.11147ZM65.7191 30.4928C70.7292 30.4928 74.6032 26.3518 74.6032 21.3045C74.6032 16.2572 70.7292 12.0728 65.7191 12.0728C60.7091 12.0728 56.8724 16.2137 56.8724 21.3045C56.8724 26.3953 60.7463 30.4928 65.7191 30.4928Z" fill="white"/>
<path d="M84.2508 27.1155C85.0889 29.2014 87.2121 30.7225 89.4905 30.7225C92.5698 30.7225 95.1897 28.1026 95.1897 24.8743C95.1897 21.646 92.9486 18.8336 89.267 19.293C86.1505 19.6345 84.8964 23.6202 82.7359 23.583C78.9365 23.5457 80.2651 16.4807 80.2651 16.4807H83.5679C83.5679 16.4807 82.767 19.7835 83.7976 19.7462C84.8964 19.709 85.927 16.7477 89.4967 16.1765C94.811 15.3384 98.7222 20.0877 98.7222 24.8743C98.7222 29.6609 94.6993 33.8763 89.7575 33.5721C87.4418 33.4231 85.6973 32.5105 84.2508 31.1012V39.8362H80.8735V27.1155H84.2508Z" fill="white"/>
<path d="M100.237 23.732C100.727 19.4048 104.527 16.2137 109.121 16.0213C114.895 15.7916 117.514 18.6039 116.832 21.6398C115.882 25.7062 105.402 28.8165 105.402 28.8165C106.464 29.8782 107.873 30.5238 109.425 30.5238C113.107 30.5238 114.739 27.3328 114.739 27.3328L117.018 28.8165C117.018 28.8165 114.435 33.4107 109.121 33.4107C106.004 33.4107 103.273 31.8524 101.64 29.4995C101.447 29.1952 100.957 28.3199 100.727 27.7922C100.727 27.7922 113.225 24.4894 113.262 20.6899C113.262 19.3241 111.288 18.7902 109.425 18.8647C106.65 18.9764 104.26 20.9507 103.807 23.7258H100.237V23.732Z" fill="white"/>
<path d="M122.686 33.1127H119.309V16.3627H122.686V25.3647C122.686 25.3647 124.853 15.1459 130.962 16.0585C133.737 16.4745 134.948 19.2868 134.948 24.0734V33.1127H131.527V24.3404C131.527 24.3404 131.719 19.442 129.82 19.2496C125.642 18.7964 122.68 33.1127 122.68 33.1127H122.686Z" fill="white"/>
<path d="M144.13 8.95006H152.964C155.187 8.95006 156.931 9.70126 158.198 11.2099C159.458 12.7185 159.911 14.5748 159.557 16.7725C159.197 18.9764 158.148 20.8327 156.397 22.3351C154.647 23.8437 152.66 24.5949 150.431 24.5949H144.831L143.422 33.2865H140.188L144.13 8.94386V8.95006ZM145.322 21.5715H150.922C152.287 21.5715 153.473 21.1183 154.479 20.2119C155.516 19.262 156.143 18.1135 156.36 16.7663C156.584 15.3756 156.329 14.2271 155.596 13.3207C154.864 12.4143 153.821 11.9611 152.48 11.9611H146.88L145.328 21.5591L145.322 21.5715Z" fill="white"/>
<path d="M174.165 18.8957L174.649 15.9033H177.673L174.854 33.2927H171.831L172.315 30.3003C170.459 32.5974 168.081 33.7459 165.182 33.7459C162.723 33.7459 160.792 32.8643 159.383 31.1012C157.955 29.3132 157.446 27.1465 157.862 24.5949C158.272 22.0681 159.476 19.9139 161.481 18.1259C163.487 16.3379 165.703 15.4501 168.143 15.4501C171.042 15.4501 173.047 16.5987 174.159 18.8957H174.165ZM166.045 30.8218C167.808 30.8218 169.372 30.232 170.75 29.0462C172.135 27.817 172.961 26.3332 173.246 24.5949C173.532 22.8318 173.178 21.3604 172.185 20.1808C171.197 18.9764 169.825 18.3742 168.062 18.3742C166.299 18.3742 164.766 18.9764 163.387 20.1808C162.015 21.3604 161.183 22.838 160.898 24.5949C160.619 26.3332 160.966 27.817 161.953 29.0462C162.947 30.2258 164.306 30.8218 166.045 30.8218Z" fill="white"/>
<path d="M185.551 29.5367L192.765 15.9033H196L185.918 34.3729C184.831 36.341 183.54 37.8434 182.044 38.8739C180.541 39.9045 178.946 40.3639 177.251 40.246L177.704 37.4274C179.809 37.5888 181.566 36.4093 182.975 33.8825L183.397 33.2244L178.623 15.9033H181.858L185.564 29.5367H185.551Z" fill="white"/>
<defs>
<linearGradient id="paint0_linear_39_100" x1="-22.5123" y1="22.5919" x2="69.6473" y2="22.5919" gradientUnits="userSpaceOnUse">
<stop stop-color="#D16EFC"/>
<stop offset="0.346154" stop-color="#A36EF7"/>
<stop offset="0.692308" stop-color="#6E6FEB"/>
<stop offset="1" stop-color="#FD84A0"/>
</linearGradient>
</defs>
</svg>
