<svg width="574" height="269" viewBox="0 0 574 269" fill="none" xmlns="http://www.w3.org/2000/svg">
<circle cx="477.231" cy="124.034" r="96.274" fill="url(#paint0_radial_39_308)"/>
<circle cx="448.314" cy="96.274" r="96.274" fill="#252330"/>
<path fill-rule="evenodd" clip-rule="evenodd" d="M439.172 57.6344C446.262 57.6344 452.996 59.1695 459.052 61.9227C456.205 61.152 453.214 60.7356 450.124 60.7356C431.372 60.7356 416.171 75.8999 416.171 94.6067C416.171 113.313 431.372 128.478 450.124 128.478C468.876 128.478 484.078 113.313 484.078 94.6067C484.078 91.5241 483.66 88.541 482.888 85.7008C485.647 91.7416 487.186 98.4599 487.186 105.532C487.186 131.989 465.687 153.437 439.166 153.437C412.651 153.437 391.151 131.989 391.151 105.532C391.151 79.0819 412.651 57.6344 439.172 57.6344Z" fill="white"/>
<path d="M463.39 107.84C470.715 100.532 470.715 88.6837 463.39 81.3758C456.064 74.0679 444.187 74.0679 436.861 81.3758C429.536 88.6837 429.536 100.532 436.861 107.84C444.187 115.148 456.064 115.148 463.39 107.84Z" fill="#17E5C2"/>
<path d="M501.437 65.9209C503.817 55.8624 497.573 45.7838 487.49 43.4098C477.407 41.0357 467.304 47.2653 464.924 57.3238C462.544 67.3823 468.789 77.4609 478.872 79.8349C488.955 82.209 499.058 75.9795 501.437 65.9209Z" fill="white"/>
<g filter="url(#filter0_f_39_308)">
<circle cx="95.4387" cy="222.398" r="75" transform="rotate(19.0827 95.4387 222.398)" fill="#252330"/>
<path fill-rule="evenodd" clip-rule="evenodd" d="M98.5489 191.623C103.768 193.429 108.336 196.274 112.093 199.843C110.193 198.551 108.097 197.483 105.822 196.696C92.0166 191.92 76.9631 199.212 72.1987 212.985C67.4343 226.757 74.7634 241.793 88.5691 246.569C102.375 251.345 117.428 244.052 122.193 230.28C122.978 228.01 123.43 225.708 123.585 223.42C124.078 228.57 123.5 233.908 121.699 239.115C114.961 258.593 93.6697 268.907 74.1445 262.153C54.6239 255.4 44.258 234.134 50.9962 214.656C57.7329 195.183 79.0237 184.868 98.5489 191.623Z" fill="white"/>
<path d="M103.591 234.753C110.846 231.239 113.864 222.516 110.332 215.27C106.8 208.024 98.0554 204.999 90.8009 208.513C83.5465 212.028 80.5288 220.751 84.0608 227.997C87.5928 235.243 96.337 238.268 103.591 234.753Z" fill="#17E5C2"/>
<path d="M142.28 213.582C146.593 206.783 144.563 197.772 137.744 193.457C130.926 189.141 121.901 191.154 117.587 197.953C113.273 204.752 115.304 213.763 122.123 218.079C128.941 222.394 137.966 220.381 142.28 213.582Z" fill="white"/>
</g>
<defs>
<filter id="filter0_f_39_308" x="4.83792" y="131.798" width="181.202" height="181.202" filterUnits="userSpaceOnUse" color-interpolation-filters="sRGB">
<feFlood flood-opacity="0" result="BackgroundImageFix"/>
<feBlend mode="normal" in="SourceGraphic" in2="BackgroundImageFix" result="shape"/>
<feGaussianBlur stdDeviation="7.79027" result="effect1_foregroundBlur_39_308"/>
</filter>
<radialGradient id="paint0_radial_39_308" cx="0" cy="0" r="1" gradientUnits="userSpaceOnUse" gradientTransform="translate(477.231 124.034) rotate(90) scale(96.274)">
<stop stop-color="#17E5C2"/>
<stop offset="1" stop-color="#141414"/>
</radialGradient>
</defs>
</svg>
