<svg width="68" height="68" viewBox="0 0 68 68" fill="none" xmlns="http://www.w3.org/2000/svg">
<rect width="68" height="68" rx="14" fill="#A36EF7"/>
<g clip-path="url(#clip0_241_187)">
<path d="M52.9852 46.2765C52.8451 45.1172 51.7019 43.8174 49.3891 42.1944L49.0712 41.9702C43.6165 38.1352 43.1699 37.8197 40.0583 39.7733C35.3191 42.7493 33.1464 41.6433 30.0765 38.044C27.8697 35.4556 26.6924 34.1595 26.6773 34.1443L26.5599 34.0151L26.4805 33.8593C26.4085 33.7187 24.7733 30.3777 28.1876 26.9494C29.997 25.1326 27.2186 21.081 24.7695 17.5082C24.3758 16.9343 23.9897 16.3718 23.6263 15.8245L23.5696 15.7333C23.5355 15.6763 22.6876 14.2206 21.2643 14.0267C21.1583 14.0115 21.0485 14.0039 20.9426 14.0039C19.6101 14.0039 18.2436 15.0795 17.3049 16.0221C12.4408 20.9062 12.9177 26.691 18.9439 35.9991C24.5045 44.5889 34.6264 50.769 38.8092 52.1715C42.5604 53.4258 48.034 53.6348 51.119 50.0925C52.5158 48.4886 53.1101 47.2761 52.9889 46.2765H52.9852Z" fill="white"/>
</g>
<defs>
<clipPath id="clip0_241_187">
<rect width="39" height="39" fill="white" transform="translate(14 14)"/>
</clipPath>
</defs>
</svg>
