<svg width="121" height="189" viewBox="0 0 121 189" fill="none" xmlns="http://www.w3.org/2000/svg">
<mask id="mask0_64_244" style="mask-type:alpha" maskUnits="userSpaceOnUse" x="0" y="0" width="121" height="189">
<rect width="121" height="189" rx="53.385" fill="#252431"/>
</mask>
<g mask="url(#mask0_64_244)">
<path d="M87.9624 99.6128C89.3037 97.7506 91.9006 97.3276 93.7632 98.6685C101.722 104.399 106.962 113.775 106.962 124.375C106.962 141.799 92.7985 155.962 75.3745 155.962C64.6503 155.962 55.2677 150.653 49.5405 142.572C48.2133 140.699 48.655 138.104 50.5278 136.777C52.4006 135.45 54.9946 135.893 56.3218 137.765C60.5695 143.759 67.4793 147.65 75.3745 147.65C88.2076 147.65 98.6499 137.208 98.6499 124.375C98.6498 116.577 94.8019 109.659 88.9067 105.415C87.0439 104.073 86.6212 101.476 87.9624 99.6128ZM36.3618 36.9272C63.1111 36.9275 84.7954 58.6125 84.7954 85.3618C84.7952 112.111 63.1109 133.795 36.3618 133.795C9.6125 133.795 -12.0725 112.111 -12.0728 85.3618C-12.0728 58.6124 9.61237 36.9272 36.3618 36.9272ZM36.3618 45.2397C14.2032 45.2397 -3.76025 63.2032 -3.76025 85.3618C-3.76003 107.52 14.2034 125.483 36.3618 125.483C58.5201 125.483 76.4827 107.52 76.4829 85.3618C76.4829 63.2034 58.5202 45.24 36.3618 45.2397Z" fill="url(#paint0_linear_64_244)"/>
</g>
<defs>
<linearGradient id="paint0_linear_64_244" x1="-12" y1="104.5" x2="114.5" y2="106" gradientUnits="userSpaceOnUse">
<stop stop-color="#252431"/>
<stop offset="1" stop-color="#A36EF7"/>
</linearGradient>
</defs>
</svg>
