<svg width="121" height="189" viewBox="0 0 121 189" fill="none" xmlns="http://www.w3.org/2000/svg">
<mask id="mask0_64_257" style="mask-type:alpha" maskUnits="userSpaceOnUse" x="0" y="0" width="121" height="189">
<rect width="121" height="189" rx="53.385" fill="#252431"/>
</mask>
<g mask="url(#mask0_64_257)">
<path d="M42.0146 34.9658C45.1985 34.9658 48.5637 35.3795 51.415 36.3223L51.9785 36.5176L52.0127 36.5303L79.8711 46.9697L80.2598 47.1211C84.2626 48.726 87.6746 51.7728 90.0908 55.2656C92.5853 58.8716 94.2607 63.3022 94.2607 67.7539V109.238C94.2607 113.364 92.9269 117.824 90.9736 121.707C89.0196 125.592 86.2318 129.324 82.9209 131.799L82.9189 131.801L58.9209 149.714L58.9219 149.715C54.1321 153.316 47.9961 154.993 42.0566 154.993C36.1172 154.993 29.9812 153.316 25.1914 149.715V149.714L1.19434 131.801L1.19238 131.799C-2.11845 129.324 -4.90635 125.592 -6.86035 121.707C-8.81356 117.824 -10.1474 113.364 -10.1475 109.238V67.7539C-10.1475 63.3238 -8.46737 58.9057 -5.97461 55.3105C-3.48135 51.7147 0.0721741 48.5847 4.24219 47.0254L32.0938 36.5332L32.1045 36.5283C35.0335 35.4343 38.6237 34.9658 42.0146 34.9658ZM42.0146 43.3408C39.27 43.3408 36.7508 43.7347 35.0459 44.3691L7.18555 54.8672L7.17578 54.8701C4.92515 55.7117 2.64426 57.5792 0.908203 60.083C-0.828398 62.5876 -1.77245 65.3723 -1.77246 67.7539V109.238C-1.77242 111.701 -0.928971 114.862 0.621094 117.943C2.16993 121.023 4.21068 123.599 6.20312 125.089H6.2041L30.2129 143.012L30.2236 143.021C33.3062 145.338 37.5834 146.618 42.0566 146.618C46.5299 146.618 50.807 145.338 53.8896 143.021L53.9004 143.012L77.9092 125.089C79.9019 123.599 81.9432 121.023 83.4922 117.943C85.0423 114.862 85.8857 111.701 85.8857 109.238V67.7539C85.8857 65.3382 84.9379 62.538 83.2031 60.0303C81.4679 57.522 79.1875 55.6558 76.9375 54.8145L76.9346 54.8135L49.1084 44.3857L48.7656 44.2666C47.0062 43.6881 44.5886 43.3408 42.0146 43.3408ZM55.5645 76.2949C57.1998 74.6596 59.852 74.6596 61.4873 76.2949C63.1221 77.9302 63.1222 80.5816 61.4873 82.2168L37.4785 106.226C35.8433 107.861 33.1919 107.86 31.5566 106.226L22.5674 97.2363C20.9321 95.6011 20.9322 92.9498 22.5674 91.3145C24.2027 89.6792 26.854 89.6791 28.4893 91.3145L34.5166 97.3418L55.5645 76.2949Z" fill="url(#paint0_linear_64_257)"/>
</g>
<defs>
<linearGradient id="paint0_linear_64_257" x1="-4.5" y1="95" x2="100" y2="95" gradientUnits="userSpaceOnUse">
<stop stop-color="#252431"/>
<stop offset="1" stop-color="#A36EF7"/>
</linearGradient>
</defs>
</svg>
