<svg width="116" height="189" viewBox="0 0 116 189" fill="none" xmlns="http://www.w3.org/2000/svg">
<mask id="mask0_64_212" style="mask-type:alpha" maskUnits="userSpaceOnUse" x="0" y="0" width="116" height="189">
<rect width="116" height="189" rx="53.385" fill="#252431"/>
</mask>
<g mask="url(#mask0_64_212)">
<path d="M16.5308 33.0308C28.9572 33.0308 39.0308 43.1044 39.0308 55.5308C39.0308 66.5628 31.0908 75.7389 20.6138 77.6597C23.3203 84.608 30.1196 89.5489 37.9956 89.5073L38.0054 89.5063L57.2954 89.4507H57.2993C72.7651 89.3933 86.0653 98.6318 92.0024 111.865C92.6196 111.81 93.2442 111.782 93.8755 111.782C105.525 111.782 114.969 121.226 114.969 132.875C114.969 144.525 105.525 153.969 93.8755 153.969C82.2257 153.969 72.7817 144.525 72.7817 132.875C72.7817 124.861 77.2509 117.89 83.8335 114.32C79.0045 104.551 68.9372 97.844 57.3276 97.8882H57.3237L38.0386 97.9429L38.0396 97.9438C38.0383 97.9438 38.0369 97.9429 38.0356 97.9429L38.0298 97.9438L38.0288 97.9429C30.7963 97.9782 24.2115 95.142 19.3433 90.519V112.204C28.9715 114.158 36.2183 122.671 36.2183 132.875C36.2183 144.525 26.7743 153.969 15.1245 153.969C3.47476 153.969 -5.96924 144.525 -5.96924 132.875C-5.96924 122.671 1.27755 114.158 10.9058 112.204V77.3218C1.20138 74.824 -5.96924 66.0148 -5.96924 55.5308C-5.96924 43.1044 4.10435 33.0308 16.5308 33.0308ZM15.1245 120.219C8.13466 120.219 2.46826 125.886 2.46826 132.875C2.46826 139.865 8.13466 145.532 15.1245 145.532C22.1144 145.532 27.7808 139.865 27.7808 132.875C27.7808 125.886 22.1144 120.219 15.1245 120.219ZM93.8755 120.219C86.8856 120.219 81.2192 125.886 81.2192 132.875C81.2192 139.865 86.8856 145.532 93.8755 145.532C100.865 145.532 106.532 139.865 106.532 132.875C106.532 125.886 100.865 120.219 93.8755 120.219ZM16.5308 41.4683C8.76426 41.4683 2.46826 47.7643 2.46826 55.5308C2.46826 63.2973 8.76426 69.5933 16.5308 69.5933C24.2973 69.5933 30.5933 63.2973 30.5933 55.5308C30.5933 47.7643 24.2973 41.4683 16.5308 41.4683Z" fill="url(#paint0_linear_64_212)"/>
</g>
<defs>
<linearGradient id="paint0_linear_64_212" x1="-14" y1="97" x2="115" y2="100" gradientUnits="userSpaceOnUse">
<stop stop-color="#252431"/>
<stop offset="1" stop-color="#A36EF7"/>
</linearGradient>
</defs>
</svg>
