<svg width="116" height="189" viewBox="0 0 116 189" fill="none" xmlns="http://www.w3.org/2000/svg">
<mask id="mask0_64_211" style="mask-type:alpha" maskUnits="userSpaceOnUse" x="0" y="0" width="116" height="189">
<rect width="116" height="189" rx="53.385" fill="#252431"/>
</mask>
<g mask="url(#mask0_64_211)">
<path d="M78.249 99.5312C93.0102 99.5312 104.968 111.489 104.968 126.25C104.968 131.223 103.584 135.949 101.131 139.963L100.859 140.418C99.4901 142.653 97.7725 144.653 95.8066 146.312C91.1102 150.513 84.9565 152.969 78.249 152.969C68.4946 152.969 59.9993 147.75 55.3857 139.994L55.3867 139.993C52.9218 135.972 51.5303 131.236 51.5303 126.25C51.5303 122.033 52.5052 118.028 54.2549 114.467C51.108 113.897 47.841 113.594 44.5 113.594C19.3164 113.594 0.400391 130.08 0.400391 148.75C0.400391 151.08 -1.48863 152.968 -3.81836 152.969C-6.14831 152.969 -8.03809 151.08 -8.03809 148.75C-8.03809 123.883 16.359 105.156 44.5 105.156C49.7567 105.156 54.8718 105.806 59.7109 107.015C60.3006 106.45 60.9156 105.91 61.5566 105.401L61.9912 105.062C66.5106 101.607 72.1544 99.5312 78.249 99.5312ZM78.249 107.969C73.9655 107.969 69.9893 109.47 66.8164 111.999L66.8086 112.005C62.6171 115.331 59.9678 120.482 59.9678 126.25C59.9678 129.464 60.811 132.502 62.2969 135.107L62.6025 135.623L62.6377 135.681C65.7866 140.974 71.5785 144.531 78.249 144.531C82.8767 144.531 87.0494 142.843 90.2207 139.989L90.332 139.893C91.6986 138.746 92.9034 137.322 93.8428 135.712L93.8955 135.623C95.571 132.906 96.5303 129.678 96.5303 126.25C96.5303 116.149 88.3503 107.969 78.249 107.969ZM84.1592 117.64C85.8697 116.058 88.5392 116.163 90.1211 117.873C91.7028 119.584 91.598 122.253 89.8877 123.835L77.9072 134.916C76.2438 136.454 73.6618 136.404 72.0596 134.802L66.4902 129.232C64.8433 127.585 64.843 124.914 66.4902 123.267C68.1377 121.619 70.8095 121.619 72.457 123.267L75.1562 125.966L84.1592 117.64ZM44.499 32.0312C62.362 32.0312 76.8428 46.512 76.8428 64.375C76.8428 82.238 62.362 96.7188 44.499 96.7188C26.6361 96.7188 12.1553 82.238 12.1553 64.375C12.1553 46.512 26.6361 32.0312 44.499 32.0312ZM44.499 40.4688C31.296 40.4688 20.5928 51.1719 20.5928 64.375C20.5928 77.5781 31.296 88.2812 44.499 88.2812C57.7021 88.2812 68.4053 77.5781 68.4053 64.375C68.4053 51.1719 57.7021 40.4688 44.499 40.4688Z" fill="url(#paint0_linear_64_211)"/>
</g>
<defs>
<linearGradient id="paint0_linear_64_211" x1="-8.00097" y1="96.5" x2="105" y2="96.5" gradientUnits="userSpaceOnUse">
<stop stop-color="#252431"/>
<stop offset="1" stop-color="#A36EF7"/>
</linearGradient>
</defs>
</svg>
