<svg width="660" height="748" viewBox="0 0 660 748" fill="none" xmlns="http://www.w3.org/2000/svg">
<path d="M478.392 370.36C477.999 371.441 477.802 372.621 477.802 373.825C477.802 375.029 478.023 376.258 478.417 377.34C479.867 381.518 483.824 384.517 488.494 384.517C493.163 384.517 497.121 381.518 498.571 377.34H609C637.167 377.34 660 400.173 660 428.34V696.07C660 724.236 637.167 747.07 609 747.07H51.1247C22.9581 747.07 0.125 724.236 0.125 696.07V428.34C0.125 400.173 22.9581 377.34 51.1247 377.34H161.751C163.201 381.518 167.158 384.517 171.828 384.517C176.498 384.517 180.455 381.518 181.905 377.34C182.299 376.258 182.52 375.054 182.52 373.825C182.52 372.596 182.323 371.441 181.93 370.36C180.504 366.157 176.523 363.134 171.828 363.134C167.134 363.134 163.152 366.157 161.727 370.36H51.1247C22.9581 370.36 0.125 347.526 0.125 319.36V51.6542C0.125 23.4876 22.9581 0.629883 51.1247 0.629883H609C637.167 0.629883 660 23.4876 660 51.6542V319.36C660 347.526 637.167 370.36 609 370.36H498.595C497.17 366.157 493.188 363.134 488.494 363.134C483.799 363.134 479.818 366.157 478.392 370.36Z" fill="#16151D"/>
</svg>
