<svg width="365" height="105" viewBox="0 0 365 105" fill="none" xmlns="http://www.w3.org/2000/svg">
<g filter="url(#filter0_d_219_181)">
<rect x="21.4858" y="21.2344" width="314" height="54.1379" rx="14.8879" fill="white"/>
<rect x="22.1626" y="21.9111" width="312.647" height="52.7845" rx="14.2112" stroke="#D1D1D1" stroke-width="1.35345"/>
</g>
<g clip-path="url(#clip0_219_181)">
<rect width="37.8966" height="37.8966" transform="translate(33.667 29.355)" fill="white"/>
<path d="M40.8744 46.6014C40.8744 41.2603 45.2162 36.9184 50.5573 36.9184C55.8984 36.9184 60.2403 41.2603 60.2403 46.6014C60.2403 48.6831 59.5623 50.6102 58.4322 52.1685L63.8685 57.6167C64.1896 57.9498 64.3562 58.3899 64.3562 58.8657C64.3562 59.853 63.6305 60.6144 62.6194 60.6144C62.1555 60.6144 61.6916 60.4597 61.3585 60.1147L55.8865 54.6428C54.3639 55.6777 52.5439 56.2844 50.5573 56.2844C45.2162 56.2844 40.8744 51.9425 40.8744 46.6014ZM43.3962 46.6014C43.3962 50.5507 46.5961 53.7625 50.5573 53.7625C54.5067 53.7625 57.7185 50.5507 57.7185 46.6014C57.7185 42.6521 54.5067 39.4403 50.5573 39.4403C46.5961 39.4403 43.3962 42.6521 43.3962 46.6014Z" fill="#B8B8B8"/>
</g>
<path d="M78.4891 54.7146C76.9858 54.7146 75.6974 54.3695 74.6236 53.6793C73.5652 52.9737 72.8213 51.9996 72.3918 50.7572L74.2325 49.6988C74.846 51.6468 76.2802 52.6209 78.5351 52.6209C79.6242 52.6209 80.4601 52.3984 81.043 51.9536C81.6413 51.5088 81.9404 50.9029 81.9404 50.1359C81.9404 49.3843 81.6489 48.8091 81.066 48.4103C80.5445 48.0575 79.5705 47.651 78.1439 47.1908L76.6024 46.6846C76.2649 46.5466 75.8201 46.3472 75.2679 46.0864C74.731 45.8103 74.3399 45.5342 74.0944 45.2581C73.4195 44.5218 73.082 43.6245 73.082 42.5661C73.082 41.1549 73.5729 40.0505 74.5546 39.2528C75.5363 38.4245 76.7327 38.0104 78.1439 38.0104C79.4017 38.0104 80.5062 38.3248 81.4572 38.9537C82.4082 39.5826 83.1215 40.4416 83.597 41.5307L81.8023 42.5661C81.1121 40.9095 79.8926 40.0812 78.1439 40.0812C77.2696 40.0812 76.564 40.2959 76.0271 40.7254C75.4903 41.1549 75.2218 41.7378 75.2218 42.4741C75.2218 43.1796 75.4749 43.7165 75.9811 44.0847C76.5027 44.4681 77.377 44.8516 78.6041 45.2351L79.5475 45.5342C80.069 45.7336 80.3528 45.841 80.3988 45.8563C80.8896 46.0404 81.4265 46.2935 82.0094 46.6156C82.4235 46.8457 82.8377 47.1985 83.2519 47.674C83.7887 48.2109 84.0572 49.0162 84.0572 50.0899C84.0572 51.5011 83.5433 52.6285 82.5156 53.4722C81.4725 54.3005 80.1304 54.7146 78.4891 54.7146ZM97.1455 49.5837H87.5049C87.7043 50.5961 88.1721 51.3937 88.9084 51.9766C89.6447 52.5442 90.565 52.8279 91.6694 52.8279C93.188 52.8279 94.2924 52.2681 94.9827 51.1483L96.6853 52.1147C95.5502 53.848 93.8629 54.7146 91.6234 54.7146C89.8134 54.7146 88.3255 54.1471 87.1597 53.012C86.0246 51.8462 85.4571 50.3967 85.4571 48.6634C85.4571 46.9147 86.017 45.4728 87.1367 44.3378C88.2565 43.1873 89.706 42.6121 91.4853 42.6121C93.1726 42.6121 94.5455 43.2103 95.6039 44.4068C96.6776 45.5725 97.2145 46.9991 97.2145 48.6864C97.2145 48.9778 97.1915 49.2769 97.1455 49.5837ZM91.4853 44.4988C90.427 44.4988 89.5373 44.7979 88.8163 45.3961C88.1107 45.9944 87.6736 46.8073 87.5049 47.8351H95.1897C95.021 46.7767 94.5992 45.956 93.9243 45.3731C93.2493 44.7903 92.4364 44.4988 91.4853 44.4988ZM108.466 44.89V42.9112H110.468V54.4155H108.466V52.4368C107.485 53.9554 106.035 54.7146 104.118 54.7146C102.492 54.7146 101.119 54.1318 99.9993 52.966C98.8642 51.7849 98.2966 50.3507 98.2966 48.6634C98.2966 46.9914 98.8642 45.5649 99.9993 44.3838C101.134 43.2027 102.507 42.6121 104.118 42.6121C106.035 42.6121 107.485 43.3714 108.466 44.89ZM104.371 52.7819C105.537 52.7819 106.511 52.3908 107.293 51.6085C108.075 50.7955 108.466 49.8138 108.466 48.6634C108.466 47.4976 108.075 46.5236 107.293 45.7413C106.511 44.9436 105.537 44.5448 104.371 44.5448C103.22 44.5448 102.254 44.9436 101.472 45.7413C100.69 46.5236 100.298 47.4976 100.298 48.6634C100.298 49.8138 100.69 50.7955 101.472 51.6085C102.254 52.3908 103.22 52.7819 104.371 52.7819ZM114.951 42.9112V44.8439C115.61 43.4174 116.807 42.7041 118.54 42.7041V44.7979C117.558 44.7519 116.715 45.0127 116.009 45.5802C115.303 46.1478 114.951 47.0604 114.951 48.3182V54.4155H112.949V42.9112H114.951ZM124.724 54.7146C122.991 54.7146 121.549 54.1394 120.399 52.989C119.248 51.8232 118.673 50.3813 118.673 48.6634C118.673 46.9454 119.248 45.5112 120.399 44.3608C121.549 43.195 122.991 42.6121 124.724 42.6121C125.859 42.6121 126.879 42.8882 127.784 43.4404C128.689 43.9773 129.364 44.7059 129.809 45.6262L128.129 46.5926C127.838 45.979 127.386 45.4882 126.772 45.12C126.174 44.7519 125.491 44.5678 124.724 44.5678C123.574 44.5678 122.607 44.959 121.825 45.7413C121.058 46.5389 120.675 47.5129 120.675 48.6634C120.675 49.7985 121.058 50.7648 121.825 51.5625C122.607 52.3448 123.574 52.7359 124.724 52.7359C125.491 52.7359 126.181 52.5595 126.795 52.2067C127.409 51.8386 127.876 51.3477 128.198 50.7341L129.901 51.7235C129.395 52.6439 128.682 53.3725 127.761 53.9093C126.841 54.4462 125.829 54.7146 124.724 54.7146ZM137.054 42.6121C138.404 42.6121 139.486 43.0416 140.299 43.9006C141.112 44.7442 141.518 45.8947 141.518 47.3519V54.4155H139.516V47.4669C139.516 46.5466 139.263 45.8256 138.757 45.3041C138.251 44.7826 137.553 44.5218 136.663 44.5218C135.636 44.5218 134.823 44.8439 134.224 45.4882C133.626 46.1171 133.327 47.0604 133.327 48.3182V54.4155H131.325V38.3095H133.327V44.5678C134.125 43.264 135.367 42.6121 137.054 42.6121Z" fill="#B8B8B8"/>
<defs>
<filter id="filter0_d_219_181" x="0.48584" y="0.234375" width="364" height="104.138" filterUnits="userSpaceOnUse" color-interpolation-filters="sRGB">
<feFlood flood-opacity="0" result="BackgroundImageFix"/>
<feColorMatrix in="SourceAlpha" type="matrix" values="0 0 0 0 0 0 0 0 0 0 0 0 0 0 0 0 0 0 127 0" result="hardAlpha"/>
<feOffset dx="4" dy="4"/>
<feGaussianBlur stdDeviation="12.5"/>
<feComposite in2="hardAlpha" operator="out"/>
<feColorMatrix type="matrix" values="0 0 0 0 0 0 0 0 0 0 0 0 0 0 0 0 0 0 0.15 0"/>
<feBlend mode="normal" in2="BackgroundImageFix" result="effect1_dropShadow_219_181"/>
<feBlend mode="normal" in="SourceGraphic" in2="effect1_dropShadow_219_181" result="shape"/>
</filter>
<clipPath id="clip0_219_181">
<rect width="37.8966" height="37.8966" fill="white" transform="translate(33.667 29.355)"/>
</clipPath>
</defs>
</svg>
