<svg width="383" height="109" viewBox="0 0 383 109" fill="none" xmlns="http://www.w3.org/2000/svg">
<path d="M330.945 2.34018H68.6309C40.9428 2.34037 18.5469 24.4991 18.5537 51.7728V51.7738C18.5537 72.5306 14.3583 87.0244 10.0996 96.3822C8.30893 100.317 6.50821 103.334 5.01367 105.523C6.81097 105.083 8.99437 104.492 11.4541 103.713C18.5065 101.481 27.7845 97.7278 36.748 91.6458C37.446 91.1724 38.3655 91.1858 39.0488 91.68C47.344 97.68 57.5688 101.228 68.6455 101.228L330.945 101.163L331.593 101.16C345.166 100.99 357.431 95.4877 366.345 86.683C375.4 77.7389 380.995 65.3901 380.995 51.7523C380.995 24.4846 358.612 2.34018 330.945 2.34018Z" fill="white" stroke="url(#paint0_linear_39_68)" stroke-width="4.01054" stroke-linejoin="round"/>
<defs>
<linearGradient id="paint0_linear_39_68" x1="383" y1="54.4741" x2="0.000183105" y2="54.4741" gradientUnits="userSpaceOnUse">
<stop stop-color="#FF85A0"/>
<stop offset="0.283654" stop-color="#A36FB1"/>
<stop offset="0.610577" stop-color="#556EEF"/>
<stop offset="1" stop-color="#DF6EFD"/>
</linearGradient>
</defs>
</svg>
