<svg width="93" height="57" viewBox="0 0 93 57" fill="none" xmlns="http://www.w3.org/2000/svg">
<path fill-rule="evenodd" clip-rule="evenodd" d="M28.9157 0.275464C32.0886 0.0931112 35.2579 0.107699 38.4309 0.107699C38.4528 0.107699 54.5089 0.107699 54.5089 0.107699C57.7439 0.107699 60.9132 0.0931112 64.0843 0.275464C66.9673 0.439582 69.7755 0.789699 72.571 1.57199C78.4555 3.21682 83.5942 6.65235 87.3088 11.523C91.0014 16.3626 93 22.2873 93 28.3706C93 34.4612 91.0014 40.3822 87.3088 45.2218C83.5942 50.0906 78.4555 53.528 72.571 55.1728C69.7755 55.9551 66.9673 56.3034 64.0843 56.4693C60.9132 56.6517 57.7439 56.6353 54.5709 56.6353C54.5491 56.6353 38.4892 56.6371 38.4892 56.6371C35.2579 56.6353 32.0886 56.6517 28.9157 56.4693C26.0345 56.3034 23.2263 55.9551 20.4308 55.1728C14.5463 53.528 9.40759 50.0906 5.69306 45.2218C2.00041 40.3822 0 34.4612 0 28.3724C0 22.2873 2.00041 16.3626 5.69306 11.523C9.40759 6.65235 14.5463 3.21682 20.4308 1.57199C23.2263 0.789699 26.0345 0.439582 28.9157 0.275464Z" fill="#2ED082"/>
<mask id="mask0_39_474" style="mask-type:alpha" maskUnits="userSpaceOnUse" x="0" y="0" width="93" height="57">
<path fill-rule="evenodd" clip-rule="evenodd" d="M28.9157 0.275464C32.0886 0.0931112 35.2579 0.107699 38.4309 0.107699C38.4528 0.107699 54.5089 0.107699 54.5089 0.107699C57.7439 0.107699 60.9132 0.0931112 64.0843 0.275464C66.9673 0.439582 69.7755 0.789699 72.571 1.57199C78.4555 3.21682 83.5942 6.65235 87.3088 11.523C91.0014 16.3626 93 22.2873 93 28.3706C93 34.4612 91.0014 40.3822 87.3088 45.2218C83.5942 50.0906 78.4555 53.528 72.571 55.1728C69.7755 55.9551 66.9673 56.3034 64.0843 56.4693C60.9132 56.6517 57.7439 56.6353 54.5709 56.6353C54.5491 56.6353 38.4892 56.6371 38.4892 56.6371C35.2579 56.6353 32.0886 56.6517 28.9157 56.4693C26.0345 56.3034 23.2263 55.9551 20.4308 55.1728C14.5463 53.528 9.40759 50.0906 5.69306 45.2218C2.00041 40.3822 0 34.4612 0 28.3724C0 22.2873 2.00041 16.3626 5.69306 11.523C9.40759 6.65235 14.5463 3.21682 20.4308 1.57199C23.2263 0.789699 26.0345 0.439582 28.9157 0.275464Z" fill="white"/>
</mask>
<g mask="url(#mask0_39_474)">
</g>
<mask id="mask1_39_474" style="mask-type:alpha" maskUnits="userSpaceOnUse" x="0" y="0" width="93" height="57">
<path fill-rule="evenodd" clip-rule="evenodd" d="M28.9157 0.275464C32.0886 0.0931112 35.2579 0.107699 38.4309 0.107699C38.4528 0.107699 54.5089 0.107699 54.5089 0.107699C57.7439 0.107699 60.9132 0.0931112 64.0843 0.275464C66.9673 0.439582 69.7755 0.789699 72.571 1.57199C78.4555 3.21682 83.5942 6.65235 87.3088 11.523C91.0014 16.3626 93 22.2873 93 28.3706C93 34.4612 91.0014 40.3822 87.3088 45.2218C83.5942 50.0906 78.4555 53.528 72.571 55.1728C69.7755 55.9551 66.9673 56.3034 64.0843 56.4693C60.9132 56.6517 57.7439 56.6353 54.5709 56.6353C54.5491 56.6353 38.4892 56.6371 38.4892 56.6371C35.2579 56.6353 32.0886 56.6517 28.9157 56.4693C26.0345 56.3034 23.2263 55.9551 20.4308 55.1728C14.5463 53.528 9.40759 50.0906 5.69306 45.2218C2.00041 40.3822 0 34.4612 0 28.3724C0 22.2873 2.00041 16.3626 5.69306 11.523C9.40759 6.65235 14.5463 3.21682 20.4308 1.57199C23.2263 0.789699 26.0345 0.439582 28.9157 0.275464Z" fill="white"/>
</mask>
<g mask="url(#mask1_39_474)">
<g filter="url(#filter0_dd_39_474)">
<circle cx="65.1333" cy="29.3091" r="24.6176" fill="white"/>
<circle cx="65.1333" cy="29.3091" r="25.0735" stroke="black" stroke-opacity="0.04" stroke-width="0.911765"/>
</g>
</g>
<defs>
<filter id="filter0_dd_39_474" x="25.0158" y="-5.33835" width="80.2351" height="80.236" filterUnits="userSpaceOnUse" color-interpolation-filters="sRGB">
<feFlood flood-opacity="0" result="BackgroundImageFix"/>
<feColorMatrix in="SourceAlpha" type="matrix" values="0 0 0 0 0 0 0 0 0 0 0 0 0 0 0 0 0 0 127 0" result="hardAlpha"/>
<feOffset dy="5.47059"/>
<feGaussianBlur stdDeviation="0.911765"/>
<feColorMatrix type="matrix" values="0 0 0 0 0 0 0 0 0 0 0 0 0 0 0 0 0 0 0.06 0"/>
<feBlend mode="normal" in2="BackgroundImageFix" result="effect1_dropShadow_39_474"/>
<feColorMatrix in="SourceAlpha" type="matrix" values="0 0 0 0 0 0 0 0 0 0 0 0 0 0 0 0 0 0 127 0" result="hardAlpha"/>
<feOffset dy="5.47059"/>
<feGaussianBlur stdDeviation="7.29412"/>
<feColorMatrix type="matrix" values="0 0 0 0 0 0 0 0 0 0 0 0 0 0 0 0 0 0 0.15 0"/>
<feBlend mode="normal" in2="effect1_dropShadow_39_474" result="effect2_dropShadow_39_474"/>
<feBlend mode="normal" in="SourceGraphic" in2="effect2_dropShadow_39_474" result="shape"/>
</filter>
</defs>
</svg>
