<svg width="299" height="64" viewBox="0 0 299 64" fill="none" xmlns="http://www.w3.org/2000/svg">
<path d="M109.901 11.1685L93.4616 55.5919H85.1465L68.647 11.1685H76.3317L89.3053 48.1121L102.344 11.1685H109.904H109.901ZM147.713 37.1201C147.713 38.4408 147.629 39.6338 147.459 40.6989H120.944C121.153 43.5108 122.181 45.7689 124.031 47.4731C125.877 49.1772 128.145 50.0293 130.831 50.0293C134.695 50.0293 137.423 48.3891 139.018 45.1085H146.768C145.717 48.3464 143.808 51.0093 141.035 53.0969C138.307 55.1446 134.907 56.1671 130.834 56.1671C127.515 56.1671 124.533 55.4215 121.888 53.9303C119.299 52.4107 117.164 50.2013 115.716 47.5396C114.246 44.7703 113.511 41.575 113.511 37.9509C113.511 34.3295 114.225 31.1528 115.655 28.4261C117.123 25.6567 119.16 23.5265 121.763 22.0353C124.407 20.5442 127.431 19.7986 130.831 19.7986C134.109 19.7986 137.025 20.5229 139.589 21.9714C142.12 23.3897 144.196 25.5195 145.571 28.1065C146.999 30.7081 147.713 33.7117 147.713 37.1201ZM140.216 34.8194C140.174 32.1353 139.23 29.9811 137.384 28.3621C135.534 26.7432 133.246 25.9337 130.517 25.9337C128.04 25.9337 125.919 26.7432 124.156 28.3621C122.393 29.9385 121.342 32.0901 121.007 34.8194H140.216ZM172.287 19.7959C175.017 19.7959 177.453 20.3738 179.595 21.5241C181.765 22.662 183.544 24.4452 184.695 26.6367C185.914 28.8947 186.521 31.6241 186.521 34.8194V55.5893H179.407V35.9059C179.407 32.7531 178.63 30.3459 177.076 28.6817C175.52 26.9775 173.401 26.1254 170.712 26.1254C168.026 26.1254 165.884 26.9775 164.288 28.6817C162.734 30.3433 161.96 32.7531 161.96 35.9059V55.5919H154.778V20.3738H161.958V24.3999C163.165 22.9273 164.698 21.7666 166.43 21.0128C168.281 20.2026 170.275 19.7892 172.289 19.7986L172.287 19.7959ZM210.734 56.1671C207.459 56.1671 204.498 55.4215 201.854 53.9303C199.237 52.4255 197.079 50.2139 195.618 47.5396C194.106 44.7703 193.351 41.575 193.351 37.9509C193.351 34.3721 194.127 31.1954 195.681 28.4261C197.165 25.7264 199.371 23.5105 202.042 22.0353C204.729 20.5442 207.731 19.7986 211.051 19.7986C214.367 19.7986 217.37 20.5442 220.056 22.0353C222.727 23.5105 224.933 25.7264 226.418 28.4261C227.971 31.1954 228.745 34.3721 228.745 37.9509C228.745 41.5297 227.95 44.7037 226.355 47.4731C224.802 50.2018 222.534 52.4374 219.805 53.9303C217.074 55.4215 214.051 56.1671 210.734 56.1671ZM210.734 49.8376C212.581 49.8376 214.304 49.3903 215.9 48.4956C217.537 47.6009 218.858 46.2588 219.868 44.4694C220.875 42.68 221.38 40.5072 221.38 37.9509C221.38 35.3946 220.896 33.2431 219.931 31.4936C218.963 29.7042 217.681 28.3621 216.086 27.4674C214.506 26.577 212.728 26.1148 210.922 26.1254C209.076 26.1254 207.355 26.5727 205.759 27.4674C204.205 28.3621 202.966 29.7042 202.045 31.4936C201.119 33.2431 200.659 35.3946 200.659 37.9509C200.659 41.7427 201.6 44.6824 203.491 46.7701C205.422 48.8151 207.836 49.8376 210.737 49.8376H210.734ZM277.857 19.7959C280.585 19.7959 283.02 20.3738 285.162 21.5241C287.333 22.6619 289.113 24.445 290.265 26.6367C291.524 28.8947 292.154 31.6241 292.154 34.8194V55.5893H285.037V35.9059C285.037 32.7531 284.26 30.3459 282.706 28.6817C281.153 26.9775 279.031 26.1254 276.345 26.1254C273.659 26.1254 271.516 26.9775 269.921 28.6817C268.367 30.3433 267.59 32.7531 267.59 35.9059V55.5919H260.473V35.9059C260.473 32.7531 259.696 30.3459 258.143 28.6817C256.589 26.9775 254.468 26.1254 251.781 26.1254C249.093 26.1254 246.953 26.9775 245.357 28.6817C243.804 30.3433 243.027 32.7531 243.027 35.9059V55.5919H235.847V20.3738H243.027V24.3999C244.234 22.9273 245.767 21.7666 247.5 21.0128C249.326 20.1989 251.3 19.7852 253.293 19.7986C256.063 19.7986 258.54 20.3951 260.724 21.588C262.881 22.7534 264.639 24.5587 265.765 26.7645C266.814 24.6342 268.451 22.9513 270.677 21.7158C272.864 20.4479 275.34 19.7868 277.857 19.7986V19.7959Z" fill="white"/>
<path d="M43.9814 4.73146C42.5029 4.48898 40.9879 4.62704 39.5759 5.13302C38.1639 5.6391 36.9003 6.49678 35.9016 7.62711C33.9953 9.79075 33.4022 12.6077 33.86 15.4303C34.2746 17.976 34.8246 20.5596 34.9485 23.012C35.1216 26.7056 34.5665 30.3971 33.3158 33.8712C32.1842 37.0147 30.5717 39.4525 27.1163 39.9919C26.86 40.0328 25.9271 40.062 25.6621 40.0765C25.3973 40.091 24.5594 40.0357 24.3002 39.9949C20.8448 39.4554 19.2179 37.0176 18.0891 33.8537C16.8384 30.3796 16.2833 26.6881 16.4564 22.9945C16.5803 20.5509 17.1303 17.9644 17.545 15.4129C18.0028 12.5901 17.4096 9.77331 15.5034 7.60956C14.5014 6.48012 13.2347 5.62435 11.8201 5.12128C10.4054 4.61833 8.88845 4.48429 7.40915 4.73146C2.97764 5.46348 0.0261737 9.44665 0.000258365 13.6253C-0.0121085 15.2354 0.419711 16.8169 1.24708 18.1918C2.62635 20.4954 4.88961 22.1751 6.86493 23.9189C8.17222 25.0853 10.4326 28.3949 11.5412 31.9816C12.2121 34.154 12.7592 36.3557 13.3005 38.5777C14.0607 41.6744 15.106 48.5154 15.7942 51.621C17.1677 57.8379 21.3718 59.2463 25.5844 59.3892H25.7341C29.9469 59.2463 34.22 57.835 35.5934 51.6181C36.2788 48.5125 37.3212 41.6686 38.0871 38.5748C38.6314 36.3644 39.1756 34.1511 39.8465 31.9787C40.9551 28.392 43.2155 25.0707 44.5228 23.916C46.498 22.1663 48.7584 20.4925 50.1406 18.1889C50.968 16.814 51.3998 15.2325 51.3874 13.6224C51.3644 9.43502 48.4244 5.44883 43.9814 4.73146Z" fill="url(#paint0_linear_39_323)"/>
<defs>
<linearGradient id="paint0_linear_39_323" x1="5.03452" y1="11.081" x2="103.88" y2="75.8871" gradientUnits="userSpaceOnUse">
<stop stop-color="#11A97D"/>
<stop offset="1" stop-color="#6610F2"/>
</linearGradient>
</defs>
</svg>
