<svg width="243" height="81" viewBox="0 0 243 81" fill="none" xmlns="http://www.w3.org/2000/svg">
<rect x="0.5" y="0.5" width="242" height="80" rx="40" fill="url(#paint0_linear_39_425)" stroke="#625D81"/>
<path d="M86.8943 16.6543C85.5532 16.4344 84.179 16.5596 82.8982 17.0186C81.6175 17.4776 80.4713 18.2556 79.5653 19.2809C77.8363 21.2435 77.2982 23.7987 77.7135 26.359C78.0896 28.6681 78.5885 31.0116 78.7008 33.2361C78.8579 36.5865 78.3544 39.935 77.2199 43.0862C76.1934 45.9376 74.7308 48.1488 71.5964 48.6381C71.364 48.6752 70.5178 48.7017 70.2774 48.7148C70.0372 48.728 69.2771 48.6778 69.042 48.6408C65.9078 48.1514 64.4321 45.9402 63.4081 43.0703C62.2737 39.9191 61.7702 36.5706 61.9272 33.2202C62.0396 31.0037 62.5384 28.6575 62.9146 26.3432C63.3298 23.7827 62.7918 21.2277 61.0627 19.265C60.1538 18.2405 59.0049 17.4642 57.7217 17.0079C56.4385 16.5517 55.0625 16.4301 53.7206 16.6543C49.7009 17.3183 47.0237 20.9314 47.0002 24.7217C46.989 26.1822 47.3807 27.6167 48.1312 28.8639C49.3823 30.9534 51.4352 32.477 53.227 34.0587C54.4128 35.1168 56.4631 38.1188 57.4687 41.3722C58.0773 43.3428 58.5736 45.3398 59.0645 47.3553C59.7541 50.1643 60.7022 56.3695 61.3265 59.1865C62.5724 64.8257 66.3857 66.1033 70.2069 66.2329H70.3427C74.164 66.1033 78.04 64.8231 79.2858 59.1839C79.9075 56.3669 80.853 50.159 81.5478 47.3527C82.0415 45.3477 82.5351 43.3401 83.1437 41.3695C84.1493 38.1162 86.1996 35.1035 87.3854 34.0561C89.1771 32.469 91.2274 30.9508 92.4812 28.8613C93.2317 27.6141 93.6233 26.1795 93.6121 24.7191C93.5913 20.9208 90.9245 17.305 86.8943 16.6543Z" fill="white"/>
<path fill-rule="evenodd" clip-rule="evenodd" d="M163.714 20.9111C167.125 20.9111 170.365 21.6496 173.278 22.9741C171.908 22.6034 170.47 22.4031 168.983 22.4031C159.962 22.4031 152.649 29.6983 152.649 38.6978C152.649 47.6973 159.962 54.9925 168.983 54.9925C178.004 54.9925 185.317 47.6973 185.317 38.6978C185.317 37.2148 185.116 35.7797 184.745 34.4133C186.073 37.3195 186.813 40.5515 186.813 43.954C186.813 56.6818 176.47 66.9998 163.711 66.9998C150.955 66.9998 140.612 56.6818 140.612 43.954C140.612 31.2291 150.955 20.9111 163.714 20.9111Z" fill="white"/>
<path d="M175.365 45.0649C178.889 41.5492 178.889 35.8492 175.365 32.3335C171.84 28.8178 166.127 28.8178 162.602 32.3335C159.078 35.8492 159.078 41.5492 162.602 45.0649C166.127 48.5806 171.84 48.5806 175.365 45.0649Z" fill="#17E5C2"/>
<path d="M193.669 24.8976C194.814 20.0587 191.809 15.21 186.959 14.0679C182.108 12.9258 177.248 15.9228 176.103 20.7617C174.958 25.6007 177.962 30.4493 182.813 31.5914C187.663 32.7335 192.524 29.7366 193.669 24.8976Z" fill="white"/>
<line x1="111.027" y1="38" x2="124.612" y2="51.5858" stroke="white" stroke-width="2" stroke-linecap="round"/>
<line x1="1" y1="-1" x2="20.2132" y2="-1" transform="matrix(-0.707107 0.707107 0.707107 0.707107 125.612 38)" stroke="white" stroke-width="2" stroke-linecap="round"/>
<defs>
<linearGradient id="paint0_linear_39_425" x1="0" y1="40.5" x2="243" y2="40.5" gradientUnits="userSpaceOnUse">
<stop stop-color="#16151E"/>
<stop offset="1" stop-color="#2C2A3A"/>
</linearGradient>
</defs>
</svg>
